<mxfile host="Electron" modified="2024-04-07T04:44:14.549Z" agent="Mozilla/5.0 (Windows NT 10.0; Win64; x64) AppleWebKit/537.36 (KHTML, like Gecko) draw.io/24.1.0 Chrome/120.0.6099.109 Electron/28.1.0 Safari/537.36" etag="WWY1EZ0CDQTZftEwVtdW" version="24.1.0" type="device">
  <diagram name="Page-1" id="q4UrDDv0PWTNzyDM_Sgz">
    <mxGraphModel dx="1439" dy="932" grid="1" gridSize="10" guides="1" tooltips="1" connect="1" arrows="1" fold="1" page="1" pageScale="1" pageWidth="850" pageHeight="1100" background="none" math="0" shadow="1">
      <root>
        <mxCell id="0" />
        <mxCell id="1" parent="0" />
        <mxCell id="RJMvMQkkJR_VjAVG7Zus-235" value="Answer" style="shape=table;startSize=30;container=1;collapsible=0;childLayout=tableLayout;fillColor=#dae8fc;strokeColor=#6c8ebf;fontStyle=1;fontSize=18;" vertex="1" parent="1">
          <mxGeometry x="1490" y="100" width="190" height="210" as="geometry" />
        </mxCell>
        <mxCell id="RJMvMQkkJR_VjAVG7Zus-236" value="" style="shape=tableRow;horizontal=0;startSize=0;swimlaneHead=0;swimlaneBody=0;strokeColor=inherit;top=0;left=0;bottom=0;right=0;collapsible=0;dropTarget=0;fillColor=none;points=[[0,0.5],[1,0.5]];portConstraint=eastwest;" vertex="1" parent="RJMvMQkkJR_VjAVG7Zus-235">
          <mxGeometry y="30" width="190" height="30" as="geometry" />
        </mxCell>
        <mxCell id="RJMvMQkkJR_VjAVG7Zus-237" value="answerID" style="shape=partialRectangle;html=1;whiteSpace=wrap;connectable=0;strokeColor=inherit;overflow=hidden;fillColor=default;top=0;left=0;bottom=0;right=0;pointerEvents=1;align=left;fontSize=14;spacingLeft=5;" vertex="1" parent="RJMvMQkkJR_VjAVG7Zus-236">
          <mxGeometry width="109" height="30" as="geometry">
            <mxRectangle width="109" height="30" as="alternateBounds" />
          </mxGeometry>
        </mxCell>
        <mxCell id="RJMvMQkkJR_VjAVG7Zus-238" value="string" style="shape=partialRectangle;html=1;whiteSpace=wrap;connectable=0;strokeColor=inherit;overflow=hidden;fillColor=default;top=0;left=0;bottom=0;right=0;pointerEvents=1;align=left;fontSize=14;spacingLeft=5;" vertex="1" parent="RJMvMQkkJR_VjAVG7Zus-236">
          <mxGeometry x="109" width="81" height="30" as="geometry">
            <mxRectangle width="81" height="30" as="alternateBounds" />
          </mxGeometry>
        </mxCell>
        <mxCell id="RJMvMQkkJR_VjAVG7Zus-239" value="" style="shape=tableRow;horizontal=0;startSize=0;swimlaneHead=0;swimlaneBody=0;strokeColor=inherit;top=0;left=0;bottom=0;right=0;collapsible=0;dropTarget=0;fillColor=none;points=[[0,0.5],[1,0.5]];portConstraint=eastwest;" vertex="1" parent="RJMvMQkkJR_VjAVG7Zus-235">
          <mxGeometry y="60" width="190" height="30" as="geometry" />
        </mxCell>
        <mxCell id="RJMvMQkkJR_VjAVG7Zus-240" value="ask" style="shape=partialRectangle;html=1;whiteSpace=wrap;connectable=0;strokeColor=inherit;overflow=hidden;fillColor=default;top=0;left=0;bottom=0;right=0;pointerEvents=1;align=left;fontSize=14;spacingLeft=5;" vertex="1" parent="RJMvMQkkJR_VjAVG7Zus-239">
          <mxGeometry width="109" height="30" as="geometry">
            <mxRectangle width="109" height="30" as="alternateBounds" />
          </mxGeometry>
        </mxCell>
        <mxCell id="RJMvMQkkJR_VjAVG7Zus-241" value="string" style="shape=partialRectangle;html=1;whiteSpace=wrap;connectable=0;strokeColor=inherit;overflow=hidden;fillColor=default;top=0;left=0;bottom=0;right=0;pointerEvents=1;align=left;fontSize=14;spacingLeft=5;" vertex="1" parent="RJMvMQkkJR_VjAVG7Zus-239">
          <mxGeometry x="109" width="81" height="30" as="geometry">
            <mxRectangle width="81" height="30" as="alternateBounds" />
          </mxGeometry>
        </mxCell>
        <mxCell id="RJMvMQkkJR_VjAVG7Zus-515" value="" style="shape=tableRow;horizontal=0;startSize=0;swimlaneHead=0;swimlaneBody=0;strokeColor=inherit;top=0;left=0;bottom=0;right=0;collapsible=0;dropTarget=0;fillColor=none;points=[[0,0.5],[1,0.5]];portConstraint=eastwest;" vertex="1" parent="RJMvMQkkJR_VjAVG7Zus-235">
          <mxGeometry y="90" width="190" height="30" as="geometry" />
        </mxCell>
        <mxCell id="RJMvMQkkJR_VjAVG7Zus-516" value="user" style="shape=partialRectangle;html=1;whiteSpace=wrap;connectable=0;strokeColor=inherit;overflow=hidden;fillColor=default;top=0;left=0;bottom=0;right=0;pointerEvents=1;align=left;fontSize=14;spacingLeft=5;" vertex="1" parent="RJMvMQkkJR_VjAVG7Zus-515">
          <mxGeometry width="109" height="30" as="geometry">
            <mxRectangle width="109" height="30" as="alternateBounds" />
          </mxGeometry>
        </mxCell>
        <mxCell id="RJMvMQkkJR_VjAVG7Zus-517" value="string" style="shape=partialRectangle;html=1;whiteSpace=wrap;connectable=0;strokeColor=inherit;overflow=hidden;fillColor=default;top=0;left=0;bottom=0;right=0;pointerEvents=1;align=left;fontSize=14;spacingLeft=5;" vertex="1" parent="RJMvMQkkJR_VjAVG7Zus-515">
          <mxGeometry x="109" width="81" height="30" as="geometry">
            <mxRectangle width="81" height="30" as="alternateBounds" />
          </mxGeometry>
        </mxCell>
        <mxCell id="RJMvMQkkJR_VjAVG7Zus-242" value="" style="shape=tableRow;horizontal=0;startSize=0;swimlaneHead=0;swimlaneBody=0;strokeColor=inherit;top=0;left=0;bottom=0;right=0;collapsible=0;dropTarget=0;fillColor=none;points=[[0,0.5],[1,0.5]];portConstraint=eastwest;" vertex="1" parent="RJMvMQkkJR_VjAVG7Zus-235">
          <mxGeometry y="120" width="190" height="30" as="geometry" />
        </mxCell>
        <mxCell id="RJMvMQkkJR_VjAVG7Zus-243" value="answer" style="shape=partialRectangle;html=1;whiteSpace=wrap;connectable=0;strokeColor=inherit;overflow=hidden;fillColor=default;top=0;left=0;bottom=0;right=0;pointerEvents=1;align=left;fontSize=14;spacingLeft=5;" vertex="1" parent="RJMvMQkkJR_VjAVG7Zus-242">
          <mxGeometry width="109" height="30" as="geometry">
            <mxRectangle width="109" height="30" as="alternateBounds" />
          </mxGeometry>
        </mxCell>
        <mxCell id="RJMvMQkkJR_VjAVG7Zus-244" value="string" style="shape=partialRectangle;html=1;whiteSpace=wrap;connectable=0;strokeColor=inherit;overflow=hidden;fillColor=default;top=0;left=0;bottom=0;right=0;pointerEvents=1;align=left;fontSize=14;spacingLeft=5;" vertex="1" parent="RJMvMQkkJR_VjAVG7Zus-242">
          <mxGeometry x="109" width="81" height="30" as="geometry">
            <mxRectangle width="81" height="30" as="alternateBounds" />
          </mxGeometry>
        </mxCell>
        <mxCell id="RJMvMQkkJR_VjAVG7Zus-245" value="" style="shape=tableRow;horizontal=0;startSize=0;swimlaneHead=0;swimlaneBody=0;strokeColor=inherit;top=0;left=0;bottom=0;right=0;collapsible=0;dropTarget=0;fillColor=none;points=[[0,0.5],[1,0.5]];portConstraint=eastwest;" vertex="1" parent="RJMvMQkkJR_VjAVG7Zus-235">
          <mxGeometry y="150" width="190" height="30" as="geometry" />
        </mxCell>
        <mxCell id="RJMvMQkkJR_VjAVG7Zus-246" value="helpfulUsers" style="shape=partialRectangle;html=1;whiteSpace=wrap;connectable=0;strokeColor=inherit;overflow=hidden;fillColor=default;top=0;left=0;bottom=0;right=0;pointerEvents=1;align=left;fontSize=14;spacingLeft=5;" vertex="1" parent="RJMvMQkkJR_VjAVG7Zus-245">
          <mxGeometry width="109" height="30" as="geometry">
            <mxRectangle width="109" height="30" as="alternateBounds" />
          </mxGeometry>
        </mxCell>
        <mxCell id="RJMvMQkkJR_VjAVG7Zus-247" value="string []" style="shape=partialRectangle;html=1;whiteSpace=wrap;connectable=0;strokeColor=inherit;overflow=hidden;fillColor=default;top=0;left=0;bottom=0;right=0;pointerEvents=1;align=left;fontSize=14;spacingLeft=5;" vertex="1" parent="RJMvMQkkJR_VjAVG7Zus-245">
          <mxGeometry x="109" width="81" height="30" as="geometry">
            <mxRectangle width="81" height="30" as="alternateBounds" />
          </mxGeometry>
        </mxCell>
        <mxCell id="RJMvMQkkJR_VjAVG7Zus-443" value="" style="shape=tableRow;horizontal=0;startSize=0;swimlaneHead=0;swimlaneBody=0;strokeColor=inherit;top=0;left=0;bottom=0;right=0;collapsible=0;dropTarget=0;fillColor=none;points=[[0,0.5],[1,0.5]];portConstraint=eastwest;" vertex="1" parent="RJMvMQkkJR_VjAVG7Zus-235">
          <mxGeometry y="180" width="190" height="30" as="geometry" />
        </mxCell>
        <mxCell id="RJMvMQkkJR_VjAVG7Zus-444" value="unhelpfulUsers" style="shape=partialRectangle;html=1;whiteSpace=wrap;connectable=0;strokeColor=inherit;overflow=hidden;fillColor=default;top=0;left=0;bottom=0;right=0;pointerEvents=1;align=left;fontSize=14;spacingLeft=5;" vertex="1" parent="RJMvMQkkJR_VjAVG7Zus-443">
          <mxGeometry width="109" height="30" as="geometry">
            <mxRectangle width="109" height="30" as="alternateBounds" />
          </mxGeometry>
        </mxCell>
        <mxCell id="RJMvMQkkJR_VjAVG7Zus-445" value="string []" style="shape=partialRectangle;html=1;whiteSpace=wrap;connectable=0;strokeColor=inherit;overflow=hidden;fillColor=default;top=0;left=0;bottom=0;right=0;pointerEvents=1;align=left;fontSize=14;spacingLeft=5;" vertex="1" parent="RJMvMQkkJR_VjAVG7Zus-443">
          <mxGeometry x="109" width="81" height="30" as="geometry">
            <mxRectangle width="81" height="30" as="alternateBounds" />
          </mxGeometry>
        </mxCell>
        <mxCell id="RJMvMQkkJR_VjAVG7Zus-339" value="Auth" style="shape=table;startSize=30;container=1;collapsible=0;childLayout=tableLayout;fillColor=#dae8fc;strokeColor=#6c8ebf;fontStyle=1;fontSize=18;" vertex="1" parent="1">
          <mxGeometry x="1180" y="10" width="220" height="270" as="geometry" />
        </mxCell>
        <mxCell id="RJMvMQkkJR_VjAVG7Zus-340" value="" style="shape=tableRow;horizontal=0;startSize=0;swimlaneHead=0;swimlaneBody=0;strokeColor=inherit;top=0;left=0;bottom=0;right=0;collapsible=0;dropTarget=0;fillColor=none;points=[[0,0.5],[1,0.5]];portConstraint=eastwest;" vertex="1" parent="RJMvMQkkJR_VjAVG7Zus-339">
          <mxGeometry y="30" width="220" height="30" as="geometry" />
        </mxCell>
        <mxCell id="RJMvMQkkJR_VjAVG7Zus-341" value="authID" style="shape=partialRectangle;html=1;whiteSpace=wrap;connectable=0;strokeColor=inherit;overflow=hidden;fillColor=default;top=0;left=0;bottom=0;right=0;pointerEvents=1;align=left;fontSize=14;spacingLeft=5;" vertex="1" parent="RJMvMQkkJR_VjAVG7Zus-340">
          <mxGeometry width="159" height="30" as="geometry">
            <mxRectangle width="159" height="30" as="alternateBounds" />
          </mxGeometry>
        </mxCell>
        <mxCell id="RJMvMQkkJR_VjAVG7Zus-342" value="string" style="shape=partialRectangle;html=1;whiteSpace=wrap;connectable=0;strokeColor=inherit;overflow=hidden;fillColor=default;top=0;left=0;bottom=0;right=0;pointerEvents=1;align=left;fontSize=14;spacingLeft=5;" vertex="1" parent="RJMvMQkkJR_VjAVG7Zus-340">
          <mxGeometry x="159" width="61" height="30" as="geometry">
            <mxRectangle width="61" height="30" as="alternateBounds" />
          </mxGeometry>
        </mxCell>
        <mxCell id="RJMvMQkkJR_VjAVG7Zus-343" value="" style="shape=tableRow;horizontal=0;startSize=0;swimlaneHead=0;swimlaneBody=0;strokeColor=inherit;top=0;left=0;bottom=0;right=0;collapsible=0;dropTarget=0;fillColor=none;points=[[0,0.5],[1,0.5]];portConstraint=eastwest;" vertex="1" parent="RJMvMQkkJR_VjAVG7Zus-339">
          <mxGeometry y="60" width="220" height="30" as="geometry" />
        </mxCell>
        <mxCell id="RJMvMQkkJR_VjAVG7Zus-344" value="username" style="shape=partialRectangle;html=1;whiteSpace=wrap;connectable=0;strokeColor=inherit;overflow=hidden;fillColor=default;top=0;left=0;bottom=0;right=0;pointerEvents=1;align=left;fontSize=14;spacingLeft=5;" vertex="1" parent="RJMvMQkkJR_VjAVG7Zus-343">
          <mxGeometry width="159" height="30" as="geometry">
            <mxRectangle width="159" height="30" as="alternateBounds" />
          </mxGeometry>
        </mxCell>
        <mxCell id="RJMvMQkkJR_VjAVG7Zus-345" value="string" style="shape=partialRectangle;html=1;whiteSpace=wrap;connectable=0;strokeColor=inherit;overflow=hidden;fillColor=default;top=0;left=0;bottom=0;right=0;pointerEvents=1;align=left;fontSize=14;spacingLeft=5;" vertex="1" parent="RJMvMQkkJR_VjAVG7Zus-343">
          <mxGeometry x="159" width="61" height="30" as="geometry">
            <mxRectangle width="61" height="30" as="alternateBounds" />
          </mxGeometry>
        </mxCell>
        <mxCell id="RJMvMQkkJR_VjAVG7Zus-346" value="" style="shape=tableRow;horizontal=0;startSize=0;swimlaneHead=0;swimlaneBody=0;strokeColor=inherit;top=0;left=0;bottom=0;right=0;collapsible=0;dropTarget=0;fillColor=none;points=[[0,0.5],[1,0.5]];portConstraint=eastwest;" vertex="1" parent="RJMvMQkkJR_VjAVG7Zus-339">
          <mxGeometry y="90" width="220" height="30" as="geometry" />
        </mxCell>
        <mxCell id="RJMvMQkkJR_VjAVG7Zus-347" value="email" style="shape=partialRectangle;html=1;whiteSpace=wrap;connectable=0;strokeColor=inherit;overflow=hidden;fillColor=default;top=0;left=0;bottom=0;right=0;pointerEvents=1;align=left;fontSize=14;spacingLeft=5;" vertex="1" parent="RJMvMQkkJR_VjAVG7Zus-346">
          <mxGeometry width="159" height="30" as="geometry">
            <mxRectangle width="159" height="30" as="alternateBounds" />
          </mxGeometry>
        </mxCell>
        <mxCell id="RJMvMQkkJR_VjAVG7Zus-348" value="string" style="shape=partialRectangle;html=1;whiteSpace=wrap;connectable=0;strokeColor=inherit;overflow=hidden;fillColor=default;top=0;left=0;bottom=0;right=0;pointerEvents=1;align=left;fontSize=14;spacingLeft=5;" vertex="1" parent="RJMvMQkkJR_VjAVG7Zus-346">
          <mxGeometry x="159" width="61" height="30" as="geometry">
            <mxRectangle width="61" height="30" as="alternateBounds" />
          </mxGeometry>
        </mxCell>
        <mxCell id="RJMvMQkkJR_VjAVG7Zus-349" value="" style="shape=tableRow;horizontal=0;startSize=0;swimlaneHead=0;swimlaneBody=0;strokeColor=inherit;top=0;left=0;bottom=0;right=0;collapsible=0;dropTarget=0;fillColor=none;points=[[0,0.5],[1,0.5]];portConstraint=eastwest;" vertex="1" parent="RJMvMQkkJR_VjAVG7Zus-339">
          <mxGeometry y="120" width="220" height="30" as="geometry" />
        </mxCell>
        <mxCell id="RJMvMQkkJR_VjAVG7Zus-350" value="role" style="shape=partialRectangle;html=1;whiteSpace=wrap;connectable=0;strokeColor=inherit;overflow=hidden;fillColor=default;top=0;left=0;bottom=0;right=0;pointerEvents=1;align=left;fontSize=14;spacingLeft=5;" vertex="1" parent="RJMvMQkkJR_VjAVG7Zus-349">
          <mxGeometry width="159" height="30" as="geometry">
            <mxRectangle width="159" height="30" as="alternateBounds" />
          </mxGeometry>
        </mxCell>
        <mxCell id="RJMvMQkkJR_VjAVG7Zus-351" value="string" style="shape=partialRectangle;html=1;whiteSpace=wrap;connectable=0;strokeColor=inherit;overflow=hidden;fillColor=default;top=0;left=0;bottom=0;right=0;pointerEvents=1;align=left;fontSize=14;spacingLeft=5;" vertex="1" parent="RJMvMQkkJR_VjAVG7Zus-349">
          <mxGeometry x="159" width="61" height="30" as="geometry">
            <mxRectangle width="61" height="30" as="alternateBounds" />
          </mxGeometry>
        </mxCell>
        <mxCell id="RJMvMQkkJR_VjAVG7Zus-458" value="" style="shape=tableRow;horizontal=0;startSize=0;swimlaneHead=0;swimlaneBody=0;strokeColor=inherit;top=0;left=0;bottom=0;right=0;collapsible=0;dropTarget=0;fillColor=none;points=[[0,0.5],[1,0.5]];portConstraint=eastwest;" vertex="1" parent="RJMvMQkkJR_VjAVG7Zus-339">
          <mxGeometry y="150" width="220" height="30" as="geometry" />
        </mxCell>
        <mxCell id="RJMvMQkkJR_VjAVG7Zus-459" value="password" style="shape=partialRectangle;html=1;whiteSpace=wrap;connectable=0;strokeColor=inherit;overflow=hidden;fillColor=default;top=0;left=0;bottom=0;right=0;pointerEvents=1;align=left;fontSize=14;spacingLeft=5;" vertex="1" parent="RJMvMQkkJR_VjAVG7Zus-458">
          <mxGeometry width="159" height="30" as="geometry">
            <mxRectangle width="159" height="30" as="alternateBounds" />
          </mxGeometry>
        </mxCell>
        <mxCell id="RJMvMQkkJR_VjAVG7Zus-460" value="string" style="shape=partialRectangle;html=1;whiteSpace=wrap;connectable=0;strokeColor=inherit;overflow=hidden;fillColor=default;top=0;left=0;bottom=0;right=0;pointerEvents=1;align=left;fontSize=14;spacingLeft=5;" vertex="1" parent="RJMvMQkkJR_VjAVG7Zus-458">
          <mxGeometry x="159" width="61" height="30" as="geometry">
            <mxRectangle width="61" height="30" as="alternateBounds" />
          </mxGeometry>
        </mxCell>
        <mxCell id="RJMvMQkkJR_VjAVG7Zus-461" value="" style="shape=tableRow;horizontal=0;startSize=0;swimlaneHead=0;swimlaneBody=0;strokeColor=inherit;top=0;left=0;bottom=0;right=0;collapsible=0;dropTarget=0;fillColor=none;points=[[0,0.5],[1,0.5]];portConstraint=eastwest;" vertex="1" parent="RJMvMQkkJR_VjAVG7Zus-339">
          <mxGeometry y="180" width="220" height="30" as="geometry" />
        </mxCell>
        <mxCell id="RJMvMQkkJR_VjAVG7Zus-462" value="passwordResetCode" style="shape=partialRectangle;html=1;whiteSpace=wrap;connectable=0;strokeColor=inherit;overflow=hidden;fillColor=default;top=0;left=0;bottom=0;right=0;pointerEvents=1;align=left;fontSize=14;spacingLeft=5;" vertex="1" parent="RJMvMQkkJR_VjAVG7Zus-461">
          <mxGeometry width="159" height="30" as="geometry">
            <mxRectangle width="159" height="30" as="alternateBounds" />
          </mxGeometry>
        </mxCell>
        <mxCell id="RJMvMQkkJR_VjAVG7Zus-463" value="string" style="shape=partialRectangle;html=1;whiteSpace=wrap;connectable=0;strokeColor=inherit;overflow=hidden;fillColor=default;top=0;left=0;bottom=0;right=0;pointerEvents=1;align=left;fontSize=14;spacingLeft=5;" vertex="1" parent="RJMvMQkkJR_VjAVG7Zus-461">
          <mxGeometry x="159" width="61" height="30" as="geometry">
            <mxRectangle width="61" height="30" as="alternateBounds" />
          </mxGeometry>
        </mxCell>
        <mxCell id="RJMvMQkkJR_VjAVG7Zus-464" value="" style="shape=tableRow;horizontal=0;startSize=0;swimlaneHead=0;swimlaneBody=0;strokeColor=inherit;top=0;left=0;bottom=0;right=0;collapsible=0;dropTarget=0;fillColor=none;points=[[0,0.5],[1,0.5]];portConstraint=eastwest;" vertex="1" parent="RJMvMQkkJR_VjAVG7Zus-339">
          <mxGeometry y="210" width="220" height="30" as="geometry" />
        </mxCell>
        <mxCell id="RJMvMQkkJR_VjAVG7Zus-465" value="passwordResetExpires" style="shape=partialRectangle;html=1;whiteSpace=wrap;connectable=0;strokeColor=inherit;overflow=hidden;fillColor=default;top=0;left=0;bottom=0;right=0;pointerEvents=1;align=left;fontSize=14;spacingLeft=5;" vertex="1" parent="RJMvMQkkJR_VjAVG7Zus-464">
          <mxGeometry width="159" height="30" as="geometry">
            <mxRectangle width="159" height="30" as="alternateBounds" />
          </mxGeometry>
        </mxCell>
        <mxCell id="RJMvMQkkJR_VjAVG7Zus-466" value="string" style="shape=partialRectangle;html=1;whiteSpace=wrap;connectable=0;strokeColor=inherit;overflow=hidden;fillColor=default;top=0;left=0;bottom=0;right=0;pointerEvents=1;align=left;fontSize=14;spacingLeft=5;" vertex="1" parent="RJMvMQkkJR_VjAVG7Zus-464">
          <mxGeometry x="159" width="61" height="30" as="geometry">
            <mxRectangle width="61" height="30" as="alternateBounds" />
          </mxGeometry>
        </mxCell>
        <mxCell id="RJMvMQkkJR_VjAVG7Zus-467" value="" style="shape=tableRow;horizontal=0;startSize=0;swimlaneHead=0;swimlaneBody=0;strokeColor=inherit;top=0;left=0;bottom=0;right=0;collapsible=0;dropTarget=0;fillColor=none;points=[[0,0.5],[1,0.5]];portConstraint=eastwest;" vertex="1" parent="RJMvMQkkJR_VjAVG7Zus-339">
          <mxGeometry y="240" width="220" height="30" as="geometry" />
        </mxCell>
        <mxCell id="RJMvMQkkJR_VjAVG7Zus-468" value="passwordChangedAt" style="shape=partialRectangle;html=1;whiteSpace=wrap;connectable=0;strokeColor=inherit;overflow=hidden;fillColor=default;top=0;left=0;bottom=0;right=0;pointerEvents=1;align=left;fontSize=14;spacingLeft=5;" vertex="1" parent="RJMvMQkkJR_VjAVG7Zus-467">
          <mxGeometry width="159" height="30" as="geometry">
            <mxRectangle width="159" height="30" as="alternateBounds" />
          </mxGeometry>
        </mxCell>
        <mxCell id="RJMvMQkkJR_VjAVG7Zus-469" value="string" style="shape=partialRectangle;html=1;whiteSpace=wrap;connectable=0;strokeColor=inherit;overflow=hidden;fillColor=default;top=0;left=0;bottom=0;right=0;pointerEvents=1;align=left;fontSize=14;spacingLeft=5;" vertex="1" parent="RJMvMQkkJR_VjAVG7Zus-467">
          <mxGeometry x="159" width="61" height="30" as="geometry">
            <mxRectangle width="61" height="30" as="alternateBounds" />
          </mxGeometry>
        </mxCell>
        <mxCell id="RJMvMQkkJR_VjAVG7Zus-352" value="Comment" style="shape=table;startSize=30;container=1;collapsible=0;childLayout=tableLayout;fillColor=#dae8fc;strokeColor=#6c8ebf;fontStyle=1;fontSize=18;" vertex="1" parent="1">
          <mxGeometry x="950" y="110" width="160" height="150" as="geometry" />
        </mxCell>
        <mxCell id="RJMvMQkkJR_VjAVG7Zus-353" value="" style="shape=tableRow;horizontal=0;startSize=0;swimlaneHead=0;swimlaneBody=0;strokeColor=inherit;top=0;left=0;bottom=0;right=0;collapsible=0;dropTarget=0;fillColor=none;points=[[0,0.5],[1,0.5]];portConstraint=eastwest;" vertex="1" parent="RJMvMQkkJR_VjAVG7Zus-352">
          <mxGeometry y="30" width="160" height="30" as="geometry" />
        </mxCell>
        <mxCell id="RJMvMQkkJR_VjAVG7Zus-354" value="commentID" style="shape=partialRectangle;html=1;whiteSpace=wrap;connectable=0;strokeColor=inherit;overflow=hidden;fillColor=default;top=0;left=0;bottom=0;right=0;pointerEvents=1;align=left;fontSize=14;spacingLeft=5;" vertex="1" parent="RJMvMQkkJR_VjAVG7Zus-353">
          <mxGeometry width="103" height="30" as="geometry">
            <mxRectangle width="103" height="30" as="alternateBounds" />
          </mxGeometry>
        </mxCell>
        <mxCell id="RJMvMQkkJR_VjAVG7Zus-355" value="string" style="shape=partialRectangle;html=1;whiteSpace=wrap;connectable=0;strokeColor=inherit;overflow=hidden;fillColor=default;top=0;left=0;bottom=0;right=0;pointerEvents=1;align=left;fontSize=14;spacingLeft=5;" vertex="1" parent="RJMvMQkkJR_VjAVG7Zus-353">
          <mxGeometry x="103" width="57" height="30" as="geometry">
            <mxRectangle width="57" height="30" as="alternateBounds" />
          </mxGeometry>
        </mxCell>
        <mxCell id="RJMvMQkkJR_VjAVG7Zus-356" value="" style="shape=tableRow;horizontal=0;startSize=0;swimlaneHead=0;swimlaneBody=0;strokeColor=inherit;top=0;left=0;bottom=0;right=0;collapsible=0;dropTarget=0;fillColor=none;points=[[0,0.5],[1,0.5]];portConstraint=eastwest;" vertex="1" parent="RJMvMQkkJR_VjAVG7Zus-352">
          <mxGeometry y="60" width="160" height="30" as="geometry" />
        </mxCell>
        <mxCell id="RJMvMQkkJR_VjAVG7Zus-357" value="user" style="shape=partialRectangle;html=1;whiteSpace=wrap;connectable=0;strokeColor=inherit;overflow=hidden;fillColor=default;top=0;left=0;bottom=0;right=0;pointerEvents=1;align=left;fontSize=14;spacingLeft=5;" vertex="1" parent="RJMvMQkkJR_VjAVG7Zus-356">
          <mxGeometry width="103" height="30" as="geometry">
            <mxRectangle width="103" height="30" as="alternateBounds" />
          </mxGeometry>
        </mxCell>
        <mxCell id="RJMvMQkkJR_VjAVG7Zus-358" value="string" style="shape=partialRectangle;html=1;whiteSpace=wrap;connectable=0;strokeColor=inherit;overflow=hidden;fillColor=default;top=0;left=0;bottom=0;right=0;pointerEvents=1;align=left;fontSize=14;spacingLeft=5;" vertex="1" parent="RJMvMQkkJR_VjAVG7Zus-356">
          <mxGeometry x="103" width="57" height="30" as="geometry">
            <mxRectangle width="57" height="30" as="alternateBounds" />
          </mxGeometry>
        </mxCell>
        <mxCell id="RJMvMQkkJR_VjAVG7Zus-359" value="" style="shape=tableRow;horizontal=0;startSize=0;swimlaneHead=0;swimlaneBody=0;strokeColor=inherit;top=0;left=0;bottom=0;right=0;collapsible=0;dropTarget=0;fillColor=none;points=[[0,0.5],[1,0.5]];portConstraint=eastwest;" vertex="1" parent="RJMvMQkkJR_VjAVG7Zus-352">
          <mxGeometry y="90" width="160" height="30" as="geometry" />
        </mxCell>
        <mxCell id="RJMvMQkkJR_VjAVG7Zus-360" value="post" style="shape=partialRectangle;html=1;whiteSpace=wrap;connectable=0;strokeColor=inherit;overflow=hidden;fillColor=default;top=0;left=0;bottom=0;right=0;pointerEvents=1;align=left;fontSize=14;spacingLeft=5;" vertex="1" parent="RJMvMQkkJR_VjAVG7Zus-359">
          <mxGeometry width="103" height="30" as="geometry">
            <mxRectangle width="103" height="30" as="alternateBounds" />
          </mxGeometry>
        </mxCell>
        <mxCell id="RJMvMQkkJR_VjAVG7Zus-361" value="string" style="shape=partialRectangle;html=1;whiteSpace=wrap;connectable=0;strokeColor=inherit;overflow=hidden;fillColor=default;top=0;left=0;bottom=0;right=0;pointerEvents=1;align=left;fontSize=14;spacingLeft=5;" vertex="1" parent="RJMvMQkkJR_VjAVG7Zus-359">
          <mxGeometry x="103" width="57" height="30" as="geometry">
            <mxRectangle width="57" height="30" as="alternateBounds" />
          </mxGeometry>
        </mxCell>
        <mxCell id="RJMvMQkkJR_VjAVG7Zus-362" value="" style="shape=tableRow;horizontal=0;startSize=0;swimlaneHead=0;swimlaneBody=0;strokeColor=inherit;top=0;left=0;bottom=0;right=0;collapsible=0;dropTarget=0;fillColor=none;points=[[0,0.5],[1,0.5]];portConstraint=eastwest;" vertex="1" parent="RJMvMQkkJR_VjAVG7Zus-352">
          <mxGeometry y="120" width="160" height="30" as="geometry" />
        </mxCell>
        <mxCell id="RJMvMQkkJR_VjAVG7Zus-363" value="comment" style="shape=partialRectangle;html=1;whiteSpace=wrap;connectable=0;strokeColor=inherit;overflow=hidden;fillColor=default;top=0;left=0;bottom=0;right=0;pointerEvents=1;align=left;fontSize=14;spacingLeft=5;" vertex="1" parent="RJMvMQkkJR_VjAVG7Zus-362">
          <mxGeometry width="103" height="30" as="geometry">
            <mxRectangle width="103" height="30" as="alternateBounds" />
          </mxGeometry>
        </mxCell>
        <mxCell id="RJMvMQkkJR_VjAVG7Zus-364" value="string" style="shape=partialRectangle;html=1;whiteSpace=wrap;connectable=0;strokeColor=inherit;overflow=hidden;fillColor=default;top=0;left=0;bottom=0;right=0;pointerEvents=1;align=left;fontSize=14;spacingLeft=5;" vertex="1" parent="RJMvMQkkJR_VjAVG7Zus-362">
          <mxGeometry x="103" width="57" height="30" as="geometry">
            <mxRectangle width="57" height="30" as="alternateBounds" />
          </mxGeometry>
        </mxCell>
        <mxCell id="RJMvMQkkJR_VjAVG7Zus-365" value="Ask" style="shape=table;startSize=30;container=1;collapsible=0;childLayout=tableLayout;fillColor=#dae8fc;strokeColor=#6c8ebf;fontStyle=1;fontSize=18;" vertex="1" parent="1">
          <mxGeometry x="1490" y="360" width="190" height="270" as="geometry" />
        </mxCell>
        <mxCell id="RJMvMQkkJR_VjAVG7Zus-366" value="" style="shape=tableRow;horizontal=0;startSize=0;swimlaneHead=0;swimlaneBody=0;strokeColor=inherit;top=0;left=0;bottom=0;right=0;collapsible=0;dropTarget=0;fillColor=none;points=[[0,0.5],[1,0.5]];portConstraint=eastwest;" vertex="1" parent="RJMvMQkkJR_VjAVG7Zus-365">
          <mxGeometry y="30" width="190" height="30" as="geometry" />
        </mxCell>
        <mxCell id="RJMvMQkkJR_VjAVG7Zus-367" value="askID" style="shape=partialRectangle;html=1;whiteSpace=wrap;connectable=0;strokeColor=inherit;overflow=hidden;fillColor=default;top=0;left=0;bottom=0;right=0;pointerEvents=1;align=left;fontSize=14;spacingLeft=5;" vertex="1" parent="RJMvMQkkJR_VjAVG7Zus-366">
          <mxGeometry width="108" height="30" as="geometry">
            <mxRectangle width="108" height="30" as="alternateBounds" />
          </mxGeometry>
        </mxCell>
        <mxCell id="RJMvMQkkJR_VjAVG7Zus-368" value="string" style="shape=partialRectangle;html=1;whiteSpace=wrap;connectable=0;strokeColor=inherit;overflow=hidden;fillColor=default;top=0;left=0;bottom=0;right=0;pointerEvents=1;align=left;fontSize=14;spacingLeft=5;" vertex="1" parent="RJMvMQkkJR_VjAVG7Zus-366">
          <mxGeometry x="108" width="82" height="30" as="geometry">
            <mxRectangle width="82" height="30" as="alternateBounds" />
          </mxGeometry>
        </mxCell>
        <mxCell id="RJMvMQkkJR_VjAVG7Zus-369" value="" style="shape=tableRow;horizontal=0;startSize=0;swimlaneHead=0;swimlaneBody=0;strokeColor=inherit;top=0;left=0;bottom=0;right=0;collapsible=0;dropTarget=0;fillColor=none;points=[[0,0.5],[1,0.5]];portConstraint=eastwest;" vertex="1" parent="RJMvMQkkJR_VjAVG7Zus-365">
          <mxGeometry y="60" width="190" height="30" as="geometry" />
        </mxCell>
        <mxCell id="RJMvMQkkJR_VjAVG7Zus-370" value="user" style="shape=partialRectangle;html=1;whiteSpace=wrap;connectable=0;strokeColor=inherit;overflow=hidden;fillColor=default;top=0;left=0;bottom=0;right=0;pointerEvents=1;align=left;fontSize=14;spacingLeft=5;" vertex="1" parent="RJMvMQkkJR_VjAVG7Zus-369">
          <mxGeometry width="108" height="30" as="geometry">
            <mxRectangle width="108" height="30" as="alternateBounds" />
          </mxGeometry>
        </mxCell>
        <mxCell id="RJMvMQkkJR_VjAVG7Zus-371" value="string" style="shape=partialRectangle;html=1;whiteSpace=wrap;connectable=0;strokeColor=inherit;overflow=hidden;fillColor=default;top=0;left=0;bottom=0;right=0;pointerEvents=1;align=left;fontSize=14;spacingLeft=5;" vertex="1" parent="RJMvMQkkJR_VjAVG7Zus-369">
          <mxGeometry x="108" width="82" height="30" as="geometry">
            <mxRectangle width="82" height="30" as="alternateBounds" />
          </mxGeometry>
        </mxCell>
        <mxCell id="RJMvMQkkJR_VjAVG7Zus-452" value="" style="shape=tableRow;horizontal=0;startSize=0;swimlaneHead=0;swimlaneBody=0;strokeColor=inherit;top=0;left=0;bottom=0;right=0;collapsible=0;dropTarget=0;fillColor=none;points=[[0,0.5],[1,0.5]];portConstraint=eastwest;" vertex="1" parent="RJMvMQkkJR_VjAVG7Zus-365">
          <mxGeometry y="90" width="190" height="30" as="geometry" />
        </mxCell>
        <mxCell id="RJMvMQkkJR_VjAVG7Zus-453" value="question" style="shape=partialRectangle;html=1;whiteSpace=wrap;connectable=0;strokeColor=inherit;overflow=hidden;fillColor=default;top=0;left=0;bottom=0;right=0;pointerEvents=1;align=left;fontSize=14;spacingLeft=5;" vertex="1" parent="RJMvMQkkJR_VjAVG7Zus-452">
          <mxGeometry width="108" height="30" as="geometry">
            <mxRectangle width="108" height="30" as="alternateBounds" />
          </mxGeometry>
        </mxCell>
        <mxCell id="RJMvMQkkJR_VjAVG7Zus-454" value="string" style="shape=partialRectangle;html=1;whiteSpace=wrap;connectable=0;strokeColor=inherit;overflow=hidden;fillColor=default;top=0;left=0;bottom=0;right=0;pointerEvents=1;align=left;fontSize=14;spacingLeft=5;" vertex="1" parent="RJMvMQkkJR_VjAVG7Zus-452">
          <mxGeometry x="108" width="82" height="30" as="geometry">
            <mxRectangle width="82" height="30" as="alternateBounds" />
          </mxGeometry>
        </mxCell>
        <mxCell id="RJMvMQkkJR_VjAVG7Zus-372" value="" style="shape=tableRow;horizontal=0;startSize=0;swimlaneHead=0;swimlaneBody=0;strokeColor=inherit;top=0;left=0;bottom=0;right=0;collapsible=0;dropTarget=0;fillColor=none;points=[[0,0.5],[1,0.5]];portConstraint=eastwest;" vertex="1" parent="RJMvMQkkJR_VjAVG7Zus-365">
          <mxGeometry y="120" width="190" height="30" as="geometry" />
        </mxCell>
        <mxCell id="RJMvMQkkJR_VjAVG7Zus-373" value="helpfulUsers" style="shape=partialRectangle;html=1;whiteSpace=wrap;connectable=0;strokeColor=inherit;overflow=hidden;fillColor=default;top=0;left=0;bottom=0;right=0;pointerEvents=1;align=left;fontSize=14;spacingLeft=5;" vertex="1" parent="RJMvMQkkJR_VjAVG7Zus-372">
          <mxGeometry width="108" height="30" as="geometry">
            <mxRectangle width="108" height="30" as="alternateBounds" />
          </mxGeometry>
        </mxCell>
        <mxCell id="RJMvMQkkJR_VjAVG7Zus-374" value="string []" style="shape=partialRectangle;html=1;whiteSpace=wrap;connectable=0;strokeColor=inherit;overflow=hidden;fillColor=default;top=0;left=0;bottom=0;right=0;pointerEvents=1;align=left;fontSize=14;spacingLeft=5;" vertex="1" parent="RJMvMQkkJR_VjAVG7Zus-372">
          <mxGeometry x="108" width="82" height="30" as="geometry">
            <mxRectangle width="82" height="30" as="alternateBounds" />
          </mxGeometry>
        </mxCell>
        <mxCell id="RJMvMQkkJR_VjAVG7Zus-446" value="" style="shape=tableRow;horizontal=0;startSize=0;swimlaneHead=0;swimlaneBody=0;strokeColor=inherit;top=0;left=0;bottom=0;right=0;collapsible=0;dropTarget=0;fillColor=none;points=[[0,0.5],[1,0.5]];portConstraint=eastwest;" vertex="1" parent="RJMvMQkkJR_VjAVG7Zus-365">
          <mxGeometry y="150" width="190" height="30" as="geometry" />
        </mxCell>
        <mxCell id="RJMvMQkkJR_VjAVG7Zus-447" value="unhelpfulUsers" style="shape=partialRectangle;html=1;whiteSpace=wrap;connectable=0;strokeColor=inherit;overflow=hidden;fillColor=default;top=0;left=0;bottom=0;right=0;pointerEvents=1;align=left;fontSize=14;spacingLeft=5;" vertex="1" parent="RJMvMQkkJR_VjAVG7Zus-446">
          <mxGeometry width="108" height="30" as="geometry">
            <mxRectangle width="108" height="30" as="alternateBounds" />
          </mxGeometry>
        </mxCell>
        <mxCell id="RJMvMQkkJR_VjAVG7Zus-448" value="string []" style="shape=partialRectangle;html=1;whiteSpace=wrap;connectable=0;strokeColor=inherit;overflow=hidden;fillColor=default;top=0;left=0;bottom=0;right=0;pointerEvents=1;align=left;fontSize=14;spacingLeft=5;" vertex="1" parent="RJMvMQkkJR_VjAVG7Zus-446">
          <mxGeometry x="108" width="82" height="30" as="geometry">
            <mxRectangle width="82" height="30" as="alternateBounds" />
          </mxGeometry>
        </mxCell>
        <mxCell id="RJMvMQkkJR_VjAVG7Zus-375" value="" style="shape=tableRow;horizontal=0;startSize=0;swimlaneHead=0;swimlaneBody=0;strokeColor=inherit;top=0;left=0;bottom=0;right=0;collapsible=0;dropTarget=0;fillColor=none;points=[[0,0.5],[1,0.5]];portConstraint=eastwest;" vertex="1" parent="RJMvMQkkJR_VjAVG7Zus-365">
          <mxGeometry y="180" width="190" height="30" as="geometry" />
        </mxCell>
        <mxCell id="RJMvMQkkJR_VjAVG7Zus-376" value="bookmarksBy" style="shape=partialRectangle;html=1;whiteSpace=wrap;connectable=0;strokeColor=inherit;overflow=hidden;fillColor=default;top=0;left=0;bottom=0;right=0;pointerEvents=1;align=left;fontSize=14;spacingLeft=5;" vertex="1" parent="RJMvMQkkJR_VjAVG7Zus-375">
          <mxGeometry width="108" height="30" as="geometry">
            <mxRectangle width="108" height="30" as="alternateBounds" />
          </mxGeometry>
        </mxCell>
        <mxCell id="RJMvMQkkJR_VjAVG7Zus-377" value="string []" style="shape=partialRectangle;html=1;whiteSpace=wrap;connectable=0;strokeColor=inherit;overflow=hidden;fillColor=default;top=0;left=0;bottom=0;right=0;pointerEvents=1;align=left;fontSize=14;spacingLeft=5;" vertex="1" parent="RJMvMQkkJR_VjAVG7Zus-375">
          <mxGeometry x="108" width="82" height="30" as="geometry">
            <mxRectangle width="82" height="30" as="alternateBounds" />
          </mxGeometry>
        </mxCell>
        <mxCell id="RJMvMQkkJR_VjAVG7Zus-449" value="" style="shape=tableRow;horizontal=0;startSize=0;swimlaneHead=0;swimlaneBody=0;strokeColor=inherit;top=0;left=0;bottom=0;right=0;collapsible=0;dropTarget=0;fillColor=none;points=[[0,0.5],[1,0.5]];portConstraint=eastwest;" vertex="1" parent="RJMvMQkkJR_VjAVG7Zus-365">
          <mxGeometry y="210" width="190" height="30" as="geometry" />
        </mxCell>
        <mxCell id="RJMvMQkkJR_VjAVG7Zus-450" value="locked" style="shape=partialRectangle;html=1;whiteSpace=wrap;connectable=0;strokeColor=inherit;overflow=hidden;fillColor=default;top=0;left=0;bottom=0;right=0;pointerEvents=1;align=left;fontSize=14;spacingLeft=5;" vertex="1" parent="RJMvMQkkJR_VjAVG7Zus-449">
          <mxGeometry width="108" height="30" as="geometry">
            <mxRectangle width="108" height="30" as="alternateBounds" />
          </mxGeometry>
        </mxCell>
        <mxCell id="RJMvMQkkJR_VjAVG7Zus-451" value="boolean" style="shape=partialRectangle;html=1;whiteSpace=wrap;connectable=0;strokeColor=inherit;overflow=hidden;fillColor=default;top=0;left=0;bottom=0;right=0;pointerEvents=1;align=left;fontSize=14;spacingLeft=5;" vertex="1" parent="RJMvMQkkJR_VjAVG7Zus-449">
          <mxGeometry x="108" width="82" height="30" as="geometry">
            <mxRectangle width="82" height="30" as="alternateBounds" />
          </mxGeometry>
        </mxCell>
        <mxCell id="RJMvMQkkJR_VjAVG7Zus-455" value="" style="shape=tableRow;horizontal=0;startSize=0;swimlaneHead=0;swimlaneBody=0;strokeColor=inherit;top=0;left=0;bottom=0;right=0;collapsible=0;dropTarget=0;fillColor=none;points=[[0,0.5],[1,0.5]];portConstraint=eastwest;" vertex="1" parent="RJMvMQkkJR_VjAVG7Zus-365">
          <mxGeometry y="240" width="190" height="30" as="geometry" />
        </mxCell>
        <mxCell id="RJMvMQkkJR_VjAVG7Zus-456" value="type" style="shape=partialRectangle;html=1;whiteSpace=wrap;connectable=0;strokeColor=inherit;overflow=hidden;fillColor=default;top=0;left=0;bottom=0;right=0;pointerEvents=1;align=left;fontSize=14;spacingLeft=5;" vertex="1" parent="RJMvMQkkJR_VjAVG7Zus-455">
          <mxGeometry width="108" height="30" as="geometry">
            <mxRectangle width="108" height="30" as="alternateBounds" />
          </mxGeometry>
        </mxCell>
        <mxCell id="RJMvMQkkJR_VjAVG7Zus-457" value="string" style="shape=partialRectangle;html=1;whiteSpace=wrap;connectable=0;strokeColor=inherit;overflow=hidden;fillColor=default;top=0;left=0;bottom=0;right=0;pointerEvents=1;align=left;fontSize=14;spacingLeft=5;" vertex="1" parent="RJMvMQkkJR_VjAVG7Zus-455">
          <mxGeometry x="108" width="82" height="30" as="geometry">
            <mxRectangle width="82" height="30" as="alternateBounds" />
          </mxGeometry>
        </mxCell>
        <mxCell id="RJMvMQkkJR_VjAVG7Zus-378" value="User" style="shape=table;startSize=30;container=1;collapsible=0;childLayout=tableLayout;fillColor=#dae8fc;strokeColor=#6c8ebf;fontStyle=1;fontSize=18;" vertex="1" parent="1">
          <mxGeometry x="1180" y="320" width="220" height="390" as="geometry" />
        </mxCell>
        <mxCell id="RJMvMQkkJR_VjAVG7Zus-379" value="" style="shape=tableRow;horizontal=0;startSize=0;swimlaneHead=0;swimlaneBody=0;strokeColor=inherit;top=0;left=0;bottom=0;right=0;collapsible=0;dropTarget=0;fillColor=none;points=[[0,0.5],[1,0.5]];portConstraint=eastwest;" vertex="1" parent="RJMvMQkkJR_VjAVG7Zus-378">
          <mxGeometry y="30" width="220" height="30" as="geometry" />
        </mxCell>
        <mxCell id="RJMvMQkkJR_VjAVG7Zus-380" value="userID" style="shape=partialRectangle;html=1;whiteSpace=wrap;connectable=0;strokeColor=inherit;overflow=hidden;fillColor=default;top=0;left=0;bottom=0;right=0;pointerEvents=1;align=left;fontSize=14;spacingLeft=5;" vertex="1" parent="RJMvMQkkJR_VjAVG7Zus-379">
          <mxGeometry width="153" height="30" as="geometry">
            <mxRectangle width="153" height="30" as="alternateBounds" />
          </mxGeometry>
        </mxCell>
        <mxCell id="RJMvMQkkJR_VjAVG7Zus-381" value="string" style="shape=partialRectangle;html=1;whiteSpace=wrap;connectable=0;strokeColor=inherit;overflow=hidden;fillColor=default;top=0;left=0;bottom=0;right=0;pointerEvents=1;align=left;fontSize=14;spacingLeft=5;" vertex="1" parent="RJMvMQkkJR_VjAVG7Zus-379">
          <mxGeometry x="153" width="67" height="30" as="geometry">
            <mxRectangle width="67" height="30" as="alternateBounds" />
          </mxGeometry>
        </mxCell>
        <mxCell id="RJMvMQkkJR_VjAVG7Zus-382" value="" style="shape=tableRow;horizontal=0;startSize=0;swimlaneHead=0;swimlaneBody=0;strokeColor=inherit;top=0;left=0;bottom=0;right=0;collapsible=0;dropTarget=0;fillColor=none;points=[[0,0.5],[1,0.5]];portConstraint=eastwest;" vertex="1" parent="RJMvMQkkJR_VjAVG7Zus-378">
          <mxGeometry y="60" width="220" height="30" as="geometry" />
        </mxCell>
        <mxCell id="RJMvMQkkJR_VjAVG7Zus-383" value="auth" style="shape=partialRectangle;html=1;whiteSpace=wrap;connectable=0;strokeColor=inherit;overflow=hidden;fillColor=default;top=0;left=0;bottom=0;right=0;pointerEvents=1;align=left;fontSize=14;spacingLeft=5;" vertex="1" parent="RJMvMQkkJR_VjAVG7Zus-382">
          <mxGeometry width="153" height="30" as="geometry">
            <mxRectangle width="153" height="30" as="alternateBounds" />
          </mxGeometry>
        </mxCell>
        <mxCell id="RJMvMQkkJR_VjAVG7Zus-384" value="string" style="shape=partialRectangle;html=1;whiteSpace=wrap;connectable=0;strokeColor=inherit;overflow=hidden;fillColor=default;top=0;left=0;bottom=0;right=0;pointerEvents=1;align=left;fontSize=14;spacingLeft=5;" vertex="1" parent="RJMvMQkkJR_VjAVG7Zus-382">
          <mxGeometry x="153" width="67" height="30" as="geometry">
            <mxRectangle width="67" height="30" as="alternateBounds" />
          </mxGeometry>
        </mxCell>
        <mxCell id="RJMvMQkkJR_VjAVG7Zus-385" value="" style="shape=tableRow;horizontal=0;startSize=0;swimlaneHead=0;swimlaneBody=0;strokeColor=inherit;top=0;left=0;bottom=0;right=0;collapsible=0;dropTarget=0;fillColor=none;points=[[0,0.5],[1,0.5]];portConstraint=eastwest;" vertex="1" parent="RJMvMQkkJR_VjAVG7Zus-378">
          <mxGeometry y="90" width="220" height="30" as="geometry" />
        </mxCell>
        <mxCell id="RJMvMQkkJR_VjAVG7Zus-386" value="firstName" style="shape=partialRectangle;html=1;whiteSpace=wrap;connectable=0;strokeColor=inherit;overflow=hidden;fillColor=default;top=0;left=0;bottom=0;right=0;pointerEvents=1;align=left;fontSize=14;spacingLeft=5;" vertex="1" parent="RJMvMQkkJR_VjAVG7Zus-385">
          <mxGeometry width="153" height="30" as="geometry">
            <mxRectangle width="153" height="30" as="alternateBounds" />
          </mxGeometry>
        </mxCell>
        <mxCell id="RJMvMQkkJR_VjAVG7Zus-387" value="string" style="shape=partialRectangle;html=1;whiteSpace=wrap;connectable=0;strokeColor=inherit;overflow=hidden;fillColor=default;top=0;left=0;bottom=0;right=0;pointerEvents=1;align=left;fontSize=14;spacingLeft=5;" vertex="1" parent="RJMvMQkkJR_VjAVG7Zus-385">
          <mxGeometry x="153" width="67" height="30" as="geometry">
            <mxRectangle width="67" height="30" as="alternateBounds" />
          </mxGeometry>
        </mxCell>
        <mxCell id="RJMvMQkkJR_VjAVG7Zus-388" value="" style="shape=tableRow;horizontal=0;startSize=0;swimlaneHead=0;swimlaneBody=0;strokeColor=inherit;top=0;left=0;bottom=0;right=0;collapsible=0;dropTarget=0;fillColor=none;points=[[0,0.5],[1,0.5]];portConstraint=eastwest;" vertex="1" parent="RJMvMQkkJR_VjAVG7Zus-378">
          <mxGeometry y="120" width="220" height="30" as="geometry" />
        </mxCell>
        <mxCell id="RJMvMQkkJR_VjAVG7Zus-389" value="lastName" style="shape=partialRectangle;html=1;whiteSpace=wrap;connectable=0;strokeColor=inherit;overflow=hidden;fillColor=default;top=0;left=0;bottom=0;right=0;pointerEvents=1;align=left;fontSize=14;spacingLeft=5;" vertex="1" parent="RJMvMQkkJR_VjAVG7Zus-388">
          <mxGeometry width="153" height="30" as="geometry">
            <mxRectangle width="153" height="30" as="alternateBounds" />
          </mxGeometry>
        </mxCell>
        <mxCell id="RJMvMQkkJR_VjAVG7Zus-390" value="string" style="shape=partialRectangle;html=1;whiteSpace=wrap;connectable=0;strokeColor=inherit;overflow=hidden;fillColor=default;top=0;left=0;bottom=0;right=0;pointerEvents=1;align=left;fontSize=14;spacingLeft=5;" vertex="1" parent="RJMvMQkkJR_VjAVG7Zus-388">
          <mxGeometry x="153" width="67" height="30" as="geometry">
            <mxRectangle width="67" height="30" as="alternateBounds" />
          </mxGeometry>
        </mxCell>
        <mxCell id="RJMvMQkkJR_VjAVG7Zus-479" value="" style="shape=tableRow;horizontal=0;startSize=0;swimlaneHead=0;swimlaneBody=0;strokeColor=inherit;top=0;left=0;bottom=0;right=0;collapsible=0;dropTarget=0;fillColor=none;points=[[0,0.5],[1,0.5]];portConstraint=eastwest;" vertex="1" parent="RJMvMQkkJR_VjAVG7Zus-378">
          <mxGeometry y="150" width="220" height="30" as="geometry" />
        </mxCell>
        <mxCell id="RJMvMQkkJR_VjAVG7Zus-480" value="bio" style="shape=partialRectangle;html=1;whiteSpace=wrap;connectable=0;strokeColor=inherit;overflow=hidden;fillColor=default;top=0;left=0;bottom=0;right=0;pointerEvents=1;align=left;fontSize=14;spacingLeft=5;" vertex="1" parent="RJMvMQkkJR_VjAVG7Zus-479">
          <mxGeometry width="153" height="30" as="geometry">
            <mxRectangle width="153" height="30" as="alternateBounds" />
          </mxGeometry>
        </mxCell>
        <mxCell id="RJMvMQkkJR_VjAVG7Zus-481" value="string" style="shape=partialRectangle;html=1;whiteSpace=wrap;connectable=0;strokeColor=inherit;overflow=hidden;fillColor=default;top=0;left=0;bottom=0;right=0;pointerEvents=1;align=left;fontSize=14;spacingLeft=5;" vertex="1" parent="RJMvMQkkJR_VjAVG7Zus-479">
          <mxGeometry x="153" width="67" height="30" as="geometry">
            <mxRectangle width="67" height="30" as="alternateBounds" />
          </mxGeometry>
        </mxCell>
        <mxCell id="RJMvMQkkJR_VjAVG7Zus-482" value="" style="shape=tableRow;horizontal=0;startSize=0;swimlaneHead=0;swimlaneBody=0;strokeColor=inherit;top=0;left=0;bottom=0;right=0;collapsible=0;dropTarget=0;fillColor=none;points=[[0,0.5],[1,0.5]];portConstraint=eastwest;" vertex="1" parent="RJMvMQkkJR_VjAVG7Zus-378">
          <mxGeometry y="180" width="220" height="30" as="geometry" />
        </mxCell>
        <mxCell id="RJMvMQkkJR_VjAVG7Zus-483" value="profilePhoto" style="shape=partialRectangle;html=1;whiteSpace=wrap;connectable=0;strokeColor=inherit;overflow=hidden;fillColor=default;top=0;left=0;bottom=0;right=0;pointerEvents=1;align=left;fontSize=14;spacingLeft=5;" vertex="1" parent="RJMvMQkkJR_VjAVG7Zus-482">
          <mxGeometry width="153" height="30" as="geometry">
            <mxRectangle width="153" height="30" as="alternateBounds" />
          </mxGeometry>
        </mxCell>
        <mxCell id="RJMvMQkkJR_VjAVG7Zus-484" value="string" style="shape=partialRectangle;html=1;whiteSpace=wrap;connectable=0;strokeColor=inherit;overflow=hidden;fillColor=default;top=0;left=0;bottom=0;right=0;pointerEvents=1;align=left;fontSize=14;spacingLeft=5;" vertex="1" parent="RJMvMQkkJR_VjAVG7Zus-482">
          <mxGeometry x="153" width="67" height="30" as="geometry">
            <mxRectangle width="67" height="30" as="alternateBounds" />
          </mxGeometry>
        </mxCell>
        <mxCell id="RJMvMQkkJR_VjAVG7Zus-485" value="" style="shape=tableRow;horizontal=0;startSize=0;swimlaneHead=0;swimlaneBody=0;strokeColor=inherit;top=0;left=0;bottom=0;right=0;collapsible=0;dropTarget=0;fillColor=none;points=[[0,0.5],[1,0.5]];portConstraint=eastwest;" vertex="1" parent="RJMvMQkkJR_VjAVG7Zus-378">
          <mxGeometry y="210" width="220" height="30" as="geometry" />
        </mxCell>
        <mxCell id="RJMvMQkkJR_VjAVG7Zus-486" value="coverPhoto" style="shape=partialRectangle;html=1;whiteSpace=wrap;connectable=0;strokeColor=inherit;overflow=hidden;fillColor=default;top=0;left=0;bottom=0;right=0;pointerEvents=1;align=left;fontSize=14;spacingLeft=5;" vertex="1" parent="RJMvMQkkJR_VjAVG7Zus-485">
          <mxGeometry width="153" height="30" as="geometry">
            <mxRectangle width="153" height="30" as="alternateBounds" />
          </mxGeometry>
        </mxCell>
        <mxCell id="RJMvMQkkJR_VjAVG7Zus-487" value="string" style="shape=partialRectangle;html=1;whiteSpace=wrap;connectable=0;strokeColor=inherit;overflow=hidden;fillColor=default;top=0;left=0;bottom=0;right=0;pointerEvents=1;align=left;fontSize=14;spacingLeft=5;" vertex="1" parent="RJMvMQkkJR_VjAVG7Zus-485">
          <mxGeometry x="153" width="67" height="30" as="geometry">
            <mxRectangle width="67" height="30" as="alternateBounds" />
          </mxGeometry>
        </mxCell>
        <mxCell id="RJMvMQkkJR_VjAVG7Zus-488" value="" style="shape=tableRow;horizontal=0;startSize=0;swimlaneHead=0;swimlaneBody=0;strokeColor=inherit;top=0;left=0;bottom=0;right=0;collapsible=0;dropTarget=0;fillColor=none;points=[[0,0.5],[1,0.5]];portConstraint=eastwest;" vertex="1" parent="RJMvMQkkJR_VjAVG7Zus-378">
          <mxGeometry y="240" width="220" height="30" as="geometry" />
        </mxCell>
        <mxCell id="RJMvMQkkJR_VjAVG7Zus-489" value="country" style="shape=partialRectangle;html=1;whiteSpace=wrap;connectable=0;strokeColor=inherit;overflow=hidden;fillColor=default;top=0;left=0;bottom=0;right=0;pointerEvents=1;align=left;fontSize=14;spacingLeft=5;" vertex="1" parent="RJMvMQkkJR_VjAVG7Zus-488">
          <mxGeometry width="153" height="30" as="geometry">
            <mxRectangle width="153" height="30" as="alternateBounds" />
          </mxGeometry>
        </mxCell>
        <mxCell id="RJMvMQkkJR_VjAVG7Zus-490" value="string" style="shape=partialRectangle;html=1;whiteSpace=wrap;connectable=0;strokeColor=inherit;overflow=hidden;fillColor=default;top=0;left=0;bottom=0;right=0;pointerEvents=1;align=left;fontSize=14;spacingLeft=5;" vertex="1" parent="RJMvMQkkJR_VjAVG7Zus-488">
          <mxGeometry x="153" width="67" height="30" as="geometry">
            <mxRectangle width="67" height="30" as="alternateBounds" />
          </mxGeometry>
        </mxCell>
        <mxCell id="RJMvMQkkJR_VjAVG7Zus-491" value="" style="shape=tableRow;horizontal=0;startSize=0;swimlaneHead=0;swimlaneBody=0;strokeColor=inherit;top=0;left=0;bottom=0;right=0;collapsible=0;dropTarget=0;fillColor=none;points=[[0,0.5],[1,0.5]];portConstraint=eastwest;" vertex="1" parent="RJMvMQkkJR_VjAVG7Zus-378">
          <mxGeometry y="270" width="220" height="30" as="geometry" />
        </mxCell>
        <mxCell id="RJMvMQkkJR_VjAVG7Zus-492" value="companyWorkingFor" style="shape=partialRectangle;html=1;whiteSpace=wrap;connectable=0;strokeColor=inherit;overflow=hidden;fillColor=default;top=0;left=0;bottom=0;right=0;pointerEvents=1;align=left;fontSize=14;spacingLeft=5;" vertex="1" parent="RJMvMQkkJR_VjAVG7Zus-491">
          <mxGeometry width="153" height="30" as="geometry">
            <mxRectangle width="153" height="30" as="alternateBounds" />
          </mxGeometry>
        </mxCell>
        <mxCell id="RJMvMQkkJR_VjAVG7Zus-493" value="string" style="shape=partialRectangle;html=1;whiteSpace=wrap;connectable=0;strokeColor=inherit;overflow=hidden;fillColor=default;top=0;left=0;bottom=0;right=0;pointerEvents=1;align=left;fontSize=14;spacingLeft=5;" vertex="1" parent="RJMvMQkkJR_VjAVG7Zus-491">
          <mxGeometry x="153" width="67" height="30" as="geometry">
            <mxRectangle width="67" height="30" as="alternateBounds" />
          </mxGeometry>
        </mxCell>
        <mxCell id="RJMvMQkkJR_VjAVG7Zus-494" value="" style="shape=tableRow;horizontal=0;startSize=0;swimlaneHead=0;swimlaneBody=0;strokeColor=inherit;top=0;left=0;bottom=0;right=0;collapsible=0;dropTarget=0;fillColor=none;points=[[0,0.5],[1,0.5]];portConstraint=eastwest;" vertex="1" parent="RJMvMQkkJR_VjAVG7Zus-378">
          <mxGeometry y="300" width="220" height="30" as="geometry" />
        </mxCell>
        <mxCell id="RJMvMQkkJR_VjAVG7Zus-495" value="school" style="shape=partialRectangle;html=1;whiteSpace=wrap;connectable=0;strokeColor=inherit;overflow=hidden;fillColor=default;top=0;left=0;bottom=0;right=0;pointerEvents=1;align=left;fontSize=14;spacingLeft=5;" vertex="1" parent="RJMvMQkkJR_VjAVG7Zus-494">
          <mxGeometry width="153" height="30" as="geometry">
            <mxRectangle width="153" height="30" as="alternateBounds" />
          </mxGeometry>
        </mxCell>
        <mxCell id="RJMvMQkkJR_VjAVG7Zus-496" value="string" style="shape=partialRectangle;html=1;whiteSpace=wrap;connectable=0;strokeColor=inherit;overflow=hidden;fillColor=default;top=0;left=0;bottom=0;right=0;pointerEvents=1;align=left;fontSize=14;spacingLeft=5;" vertex="1" parent="RJMvMQkkJR_VjAVG7Zus-494">
          <mxGeometry x="153" width="67" height="30" as="geometry">
            <mxRectangle width="67" height="30" as="alternateBounds" />
          </mxGeometry>
        </mxCell>
        <mxCell id="RJMvMQkkJR_VjAVG7Zus-497" value="" style="shape=tableRow;horizontal=0;startSize=0;swimlaneHead=0;swimlaneBody=0;strokeColor=inherit;top=0;left=0;bottom=0;right=0;collapsible=0;dropTarget=0;fillColor=none;points=[[0,0.5],[1,0.5]];portConstraint=eastwest;" vertex="1" parent="RJMvMQkkJR_VjAVG7Zus-378">
          <mxGeometry y="330" width="220" height="30" as="geometry" />
        </mxCell>
        <mxCell id="RJMvMQkkJR_VjAVG7Zus-498" value="interests" style="shape=partialRectangle;html=1;whiteSpace=wrap;connectable=0;strokeColor=inherit;overflow=hidden;fillColor=default;top=0;left=0;bottom=0;right=0;pointerEvents=1;align=left;fontSize=14;spacingLeft=5;" vertex="1" parent="RJMvMQkkJR_VjAVG7Zus-497">
          <mxGeometry width="153" height="30" as="geometry">
            <mxRectangle width="153" height="30" as="alternateBounds" />
          </mxGeometry>
        </mxCell>
        <mxCell id="RJMvMQkkJR_VjAVG7Zus-499" value="string" style="shape=partialRectangle;html=1;whiteSpace=wrap;connectable=0;strokeColor=inherit;overflow=hidden;fillColor=default;top=0;left=0;bottom=0;right=0;pointerEvents=1;align=left;fontSize=14;spacingLeft=5;" vertex="1" parent="RJMvMQkkJR_VjAVG7Zus-497">
          <mxGeometry x="153" width="67" height="30" as="geometry">
            <mxRectangle width="67" height="30" as="alternateBounds" />
          </mxGeometry>
        </mxCell>
        <mxCell id="RJMvMQkkJR_VjAVG7Zus-500" value="" style="shape=tableRow;horizontal=0;startSize=0;swimlaneHead=0;swimlaneBody=0;strokeColor=inherit;top=0;left=0;bottom=0;right=0;collapsible=0;dropTarget=0;fillColor=none;points=[[0,0.5],[1,0.5]];portConstraint=eastwest;" vertex="1" parent="RJMvMQkkJR_VjAVG7Zus-378">
          <mxGeometry y="360" width="220" height="30" as="geometry" />
        </mxCell>
        <mxCell id="RJMvMQkkJR_VjAVG7Zus-501" value="active" style="shape=partialRectangle;html=1;whiteSpace=wrap;connectable=0;strokeColor=inherit;overflow=hidden;fillColor=default;top=0;left=0;bottom=0;right=0;pointerEvents=1;align=left;fontSize=14;spacingLeft=5;" vertex="1" parent="RJMvMQkkJR_VjAVG7Zus-500">
          <mxGeometry width="153" height="30" as="geometry">
            <mxRectangle width="153" height="30" as="alternateBounds" />
          </mxGeometry>
        </mxCell>
        <mxCell id="RJMvMQkkJR_VjAVG7Zus-502" value="boolean" style="shape=partialRectangle;html=1;whiteSpace=wrap;connectable=0;strokeColor=inherit;overflow=hidden;fillColor=default;top=0;left=0;bottom=0;right=0;pointerEvents=1;align=left;fontSize=14;spacingLeft=5;" vertex="1" parent="RJMvMQkkJR_VjAVG7Zus-500">
          <mxGeometry x="153" width="67" height="30" as="geometry">
            <mxRectangle width="67" height="30" as="alternateBounds" />
          </mxGeometry>
        </mxCell>
        <mxCell id="RJMvMQkkJR_VjAVG7Zus-391" value="Post" style="shape=table;startSize=30;container=1;collapsible=0;childLayout=tableLayout;fillColor=#dae8fc;strokeColor=#6c8ebf;fontStyle=1;fontSize=18;" vertex="1" parent="1">
          <mxGeometry x="950" y="320" width="160" height="150" as="geometry" />
        </mxCell>
        <mxCell id="RJMvMQkkJR_VjAVG7Zus-392" value="" style="shape=tableRow;horizontal=0;startSize=0;swimlaneHead=0;swimlaneBody=0;strokeColor=inherit;top=0;left=0;bottom=0;right=0;collapsible=0;dropTarget=0;fillColor=none;points=[[0,0.5],[1,0.5]];portConstraint=eastwest;" vertex="1" parent="RJMvMQkkJR_VjAVG7Zus-391">
          <mxGeometry y="30" width="160" height="30" as="geometry" />
        </mxCell>
        <mxCell id="RJMvMQkkJR_VjAVG7Zus-393" value="postID" style="shape=partialRectangle;html=1;whiteSpace=wrap;connectable=0;strokeColor=inherit;overflow=hidden;fillColor=default;top=0;left=0;bottom=0;right=0;pointerEvents=1;align=left;fontSize=14;spacingLeft=5;" vertex="1" parent="RJMvMQkkJR_VjAVG7Zus-392">
          <mxGeometry width="100" height="30" as="geometry">
            <mxRectangle width="100" height="30" as="alternateBounds" />
          </mxGeometry>
        </mxCell>
        <mxCell id="RJMvMQkkJR_VjAVG7Zus-394" value="string" style="shape=partialRectangle;html=1;whiteSpace=wrap;connectable=0;strokeColor=inherit;overflow=hidden;fillColor=default;top=0;left=0;bottom=0;right=0;pointerEvents=1;align=left;fontSize=14;spacingLeft=5;" vertex="1" parent="RJMvMQkkJR_VjAVG7Zus-392">
          <mxGeometry x="100" width="60" height="30" as="geometry">
            <mxRectangle width="60" height="30" as="alternateBounds" />
          </mxGeometry>
        </mxCell>
        <mxCell id="RJMvMQkkJR_VjAVG7Zus-395" value="" style="shape=tableRow;horizontal=0;startSize=0;swimlaneHead=0;swimlaneBody=0;strokeColor=inherit;top=0;left=0;bottom=0;right=0;collapsible=0;dropTarget=0;fillColor=none;points=[[0,0.5],[1,0.5]];portConstraint=eastwest;" vertex="1" parent="RJMvMQkkJR_VjAVG7Zus-391">
          <mxGeometry y="60" width="160" height="30" as="geometry" />
        </mxCell>
        <mxCell id="RJMvMQkkJR_VjAVG7Zus-396" value="user" style="shape=partialRectangle;html=1;whiteSpace=wrap;connectable=0;strokeColor=inherit;overflow=hidden;fillColor=default;top=0;left=0;bottom=0;right=0;pointerEvents=1;align=left;fontSize=14;spacingLeft=5;" vertex="1" parent="RJMvMQkkJR_VjAVG7Zus-395">
          <mxGeometry width="100" height="30" as="geometry">
            <mxRectangle width="100" height="30" as="alternateBounds" />
          </mxGeometry>
        </mxCell>
        <mxCell id="RJMvMQkkJR_VjAVG7Zus-397" value="string" style="shape=partialRectangle;html=1;whiteSpace=wrap;connectable=0;strokeColor=inherit;overflow=hidden;fillColor=default;top=0;left=0;bottom=0;right=0;pointerEvents=1;align=left;fontSize=14;spacingLeft=5;" vertex="1" parent="RJMvMQkkJR_VjAVG7Zus-395">
          <mxGeometry x="100" width="60" height="30" as="geometry">
            <mxRectangle width="60" height="30" as="alternateBounds" />
          </mxGeometry>
        </mxCell>
        <mxCell id="RJMvMQkkJR_VjAVG7Zus-398" value="" style="shape=tableRow;horizontal=0;startSize=0;swimlaneHead=0;swimlaneBody=0;strokeColor=inherit;top=0;left=0;bottom=0;right=0;collapsible=0;dropTarget=0;fillColor=none;points=[[0,0.5],[1,0.5]];portConstraint=eastwest;" vertex="1" parent="RJMvMQkkJR_VjAVG7Zus-391">
          <mxGeometry y="90" width="160" height="30" as="geometry" />
        </mxCell>
        <mxCell id="RJMvMQkkJR_VjAVG7Zus-399" value="post" style="shape=partialRectangle;html=1;whiteSpace=wrap;connectable=0;strokeColor=inherit;overflow=hidden;fillColor=default;top=0;left=0;bottom=0;right=0;pointerEvents=1;align=left;fontSize=14;spacingLeft=5;" vertex="1" parent="RJMvMQkkJR_VjAVG7Zus-398">
          <mxGeometry width="100" height="30" as="geometry">
            <mxRectangle width="100" height="30" as="alternateBounds" />
          </mxGeometry>
        </mxCell>
        <mxCell id="RJMvMQkkJR_VjAVG7Zus-400" value="string" style="shape=partialRectangle;html=1;whiteSpace=wrap;connectable=0;strokeColor=inherit;overflow=hidden;fillColor=default;top=0;left=0;bottom=0;right=0;pointerEvents=1;align=left;fontSize=14;spacingLeft=5;" vertex="1" parent="RJMvMQkkJR_VjAVG7Zus-398">
          <mxGeometry x="100" width="60" height="30" as="geometry">
            <mxRectangle width="60" height="30" as="alternateBounds" />
          </mxGeometry>
        </mxCell>
        <mxCell id="RJMvMQkkJR_VjAVG7Zus-401" value="" style="shape=tableRow;horizontal=0;startSize=0;swimlaneHead=0;swimlaneBody=0;strokeColor=inherit;top=0;left=0;bottom=0;right=0;collapsible=0;dropTarget=0;fillColor=none;points=[[0,0.5],[1,0.5]];portConstraint=eastwest;" vertex="1" parent="RJMvMQkkJR_VjAVG7Zus-391">
          <mxGeometry y="120" width="160" height="30" as="geometry" />
        </mxCell>
        <mxCell id="RJMvMQkkJR_VjAVG7Zus-402" value="bookmarksBy" style="shape=partialRectangle;html=1;whiteSpace=wrap;connectable=0;strokeColor=inherit;overflow=hidden;fillColor=default;top=0;left=0;bottom=0;right=0;pointerEvents=1;align=left;fontSize=14;spacingLeft=5;" vertex="1" parent="RJMvMQkkJR_VjAVG7Zus-401">
          <mxGeometry width="100" height="30" as="geometry">
            <mxRectangle width="100" height="30" as="alternateBounds" />
          </mxGeometry>
        </mxCell>
        <mxCell id="RJMvMQkkJR_VjAVG7Zus-403" value="string" style="shape=partialRectangle;html=1;whiteSpace=wrap;connectable=0;strokeColor=inherit;overflow=hidden;fillColor=default;top=0;left=0;bottom=0;right=0;pointerEvents=1;align=left;fontSize=14;spacingLeft=5;" vertex="1" parent="RJMvMQkkJR_VjAVG7Zus-401">
          <mxGeometry x="100" width="60" height="30" as="geometry">
            <mxRectangle width="60" height="30" as="alternateBounds" />
          </mxGeometry>
        </mxCell>
        <mxCell id="RJMvMQkkJR_VjAVG7Zus-404" value="Follow" style="shape=table;startSize=30;container=1;collapsible=0;childLayout=tableLayout;fillColor=#dae8fc;strokeColor=#6c8ebf;fontStyle=1;fontSize=18;" vertex="1" parent="1">
          <mxGeometry x="1490" y="670" width="190" height="90" as="geometry" />
        </mxCell>
        <mxCell id="RJMvMQkkJR_VjAVG7Zus-405" value="" style="shape=tableRow;horizontal=0;startSize=0;swimlaneHead=0;swimlaneBody=0;strokeColor=inherit;top=0;left=0;bottom=0;right=0;collapsible=0;dropTarget=0;fillColor=none;points=[[0,0.5],[1,0.5]];portConstraint=eastwest;" vertex="1" parent="RJMvMQkkJR_VjAVG7Zus-404">
          <mxGeometry y="30" width="190" height="30" as="geometry" />
        </mxCell>
        <mxCell id="RJMvMQkkJR_VjAVG7Zus-406" value="followers" style="shape=partialRectangle;html=1;whiteSpace=wrap;connectable=0;strokeColor=inherit;overflow=hidden;fillColor=default;top=0;left=0;bottom=0;right=0;pointerEvents=1;align=left;fontSize=14;spacingLeft=5;" vertex="1" parent="RJMvMQkkJR_VjAVG7Zus-405">
          <mxGeometry width="109" height="30" as="geometry">
            <mxRectangle width="109" height="30" as="alternateBounds" />
          </mxGeometry>
        </mxCell>
        <mxCell id="RJMvMQkkJR_VjAVG7Zus-407" value="string []" style="shape=partialRectangle;html=1;whiteSpace=wrap;connectable=0;strokeColor=inherit;overflow=hidden;fillColor=default;top=0;left=0;bottom=0;right=0;pointerEvents=1;align=left;fontSize=14;spacingLeft=5;" vertex="1" parent="RJMvMQkkJR_VjAVG7Zus-405">
          <mxGeometry x="109" width="81" height="30" as="geometry">
            <mxRectangle width="81" height="30" as="alternateBounds" />
          </mxGeometry>
        </mxCell>
        <mxCell id="RJMvMQkkJR_VjAVG7Zus-408" value="" style="shape=tableRow;horizontal=0;startSize=0;swimlaneHead=0;swimlaneBody=0;strokeColor=inherit;top=0;left=0;bottom=0;right=0;collapsible=0;dropTarget=0;fillColor=none;points=[[0,0.5],[1,0.5]];portConstraint=eastwest;" vertex="1" parent="RJMvMQkkJR_VjAVG7Zus-404">
          <mxGeometry y="60" width="190" height="30" as="geometry" />
        </mxCell>
        <mxCell id="RJMvMQkkJR_VjAVG7Zus-409" value="followings" style="shape=partialRectangle;html=1;whiteSpace=wrap;connectable=0;strokeColor=inherit;overflow=hidden;fillColor=default;top=0;left=0;bottom=0;right=0;pointerEvents=1;align=left;fontSize=14;spacingLeft=5;" vertex="1" parent="RJMvMQkkJR_VjAVG7Zus-408">
          <mxGeometry width="109" height="30" as="geometry">
            <mxRectangle width="109" height="30" as="alternateBounds" />
          </mxGeometry>
        </mxCell>
        <mxCell id="RJMvMQkkJR_VjAVG7Zus-410" value="string []" style="shape=partialRectangle;html=1;whiteSpace=wrap;connectable=0;strokeColor=inherit;overflow=hidden;fillColor=default;top=0;left=0;bottom=0;right=0;pointerEvents=1;align=left;fontSize=14;spacingLeft=5;" vertex="1" parent="RJMvMQkkJR_VjAVG7Zus-408">
          <mxGeometry x="109" width="81" height="30" as="geometry">
            <mxRectangle width="81" height="30" as="alternateBounds" />
          </mxGeometry>
        </mxCell>
        <mxCell id="RJMvMQkkJR_VjAVG7Zus-417" value="Review" style="shape=table;startSize=30;container=1;collapsible=0;childLayout=tableLayout;fillColor=#dae8fc;strokeColor=#6c8ebf;fontStyle=1;fontSize=18;" vertex="1" parent="1">
          <mxGeometry x="1180" y="750" width="220" height="180" as="geometry" />
        </mxCell>
        <mxCell id="RJMvMQkkJR_VjAVG7Zus-418" value="" style="shape=tableRow;horizontal=0;startSize=0;swimlaneHead=0;swimlaneBody=0;strokeColor=inherit;top=0;left=0;bottom=0;right=0;collapsible=0;dropTarget=0;fillColor=none;points=[[0,0.5],[1,0.5]];portConstraint=eastwest;" vertex="1" parent="RJMvMQkkJR_VjAVG7Zus-417">
          <mxGeometry y="30" width="220" height="30" as="geometry" />
        </mxCell>
        <mxCell id="RJMvMQkkJR_VjAVG7Zus-419" value="reviewID" style="shape=partialRectangle;html=1;whiteSpace=wrap;connectable=0;strokeColor=inherit;overflow=hidden;fillColor=default;top=0;left=0;bottom=0;right=0;pointerEvents=1;align=left;fontSize=14;spacingLeft=5;" vertex="1" parent="RJMvMQkkJR_VjAVG7Zus-418">
          <mxGeometry width="140" height="30" as="geometry">
            <mxRectangle width="140" height="30" as="alternateBounds" />
          </mxGeometry>
        </mxCell>
        <mxCell id="RJMvMQkkJR_VjAVG7Zus-420" value="string" style="shape=partialRectangle;html=1;whiteSpace=wrap;connectable=0;strokeColor=inherit;overflow=hidden;fillColor=default;top=0;left=0;bottom=0;right=0;pointerEvents=1;align=left;fontSize=14;spacingLeft=5;" vertex="1" parent="RJMvMQkkJR_VjAVG7Zus-418">
          <mxGeometry x="140" width="80" height="30" as="geometry">
            <mxRectangle width="80" height="30" as="alternateBounds" />
          </mxGeometry>
        </mxCell>
        <mxCell id="RJMvMQkkJR_VjAVG7Zus-421" value="" style="shape=tableRow;horizontal=0;startSize=0;swimlaneHead=0;swimlaneBody=0;strokeColor=inherit;top=0;left=0;bottom=0;right=0;collapsible=0;dropTarget=0;fillColor=none;points=[[0,0.5],[1,0.5]];portConstraint=eastwest;" vertex="1" parent="RJMvMQkkJR_VjAVG7Zus-417">
          <mxGeometry y="60" width="220" height="30" as="geometry" />
        </mxCell>
        <mxCell id="RJMvMQkkJR_VjAVG7Zus-422" value="menteeID" style="shape=partialRectangle;html=1;whiteSpace=wrap;connectable=0;strokeColor=inherit;overflow=hidden;fillColor=default;top=0;left=0;bottom=0;right=0;pointerEvents=1;align=left;fontSize=14;spacingLeft=5;" vertex="1" parent="RJMvMQkkJR_VjAVG7Zus-421">
          <mxGeometry width="140" height="30" as="geometry">
            <mxRectangle width="140" height="30" as="alternateBounds" />
          </mxGeometry>
        </mxCell>
        <mxCell id="RJMvMQkkJR_VjAVG7Zus-423" value="string" style="shape=partialRectangle;html=1;whiteSpace=wrap;connectable=0;strokeColor=inherit;overflow=hidden;fillColor=default;top=0;left=0;bottom=0;right=0;pointerEvents=1;align=left;fontSize=14;spacingLeft=5;" vertex="1" parent="RJMvMQkkJR_VjAVG7Zus-421">
          <mxGeometry x="140" width="80" height="30" as="geometry">
            <mxRectangle width="80" height="30" as="alternateBounds" />
          </mxGeometry>
        </mxCell>
        <mxCell id="RJMvMQkkJR_VjAVG7Zus-424" value="" style="shape=tableRow;horizontal=0;startSize=0;swimlaneHead=0;swimlaneBody=0;strokeColor=inherit;top=0;left=0;bottom=0;right=0;collapsible=0;dropTarget=0;fillColor=none;points=[[0,0.5],[1,0.5]];portConstraint=eastwest;" vertex="1" parent="RJMvMQkkJR_VjAVG7Zus-417">
          <mxGeometry y="90" width="220" height="30" as="geometry" />
        </mxCell>
        <mxCell id="RJMvMQkkJR_VjAVG7Zus-425" value="mentorID" style="shape=partialRectangle;html=1;whiteSpace=wrap;connectable=0;strokeColor=inherit;overflow=hidden;fillColor=default;top=0;left=0;bottom=0;right=0;pointerEvents=1;align=left;fontSize=14;spacingLeft=5;" vertex="1" parent="RJMvMQkkJR_VjAVG7Zus-424">
          <mxGeometry width="140" height="30" as="geometry">
            <mxRectangle width="140" height="30" as="alternateBounds" />
          </mxGeometry>
        </mxCell>
        <mxCell id="RJMvMQkkJR_VjAVG7Zus-426" value="string" style="shape=partialRectangle;html=1;whiteSpace=wrap;connectable=0;strokeColor=inherit;overflow=hidden;fillColor=default;top=0;left=0;bottom=0;right=0;pointerEvents=1;align=left;fontSize=14;spacingLeft=5;" vertex="1" parent="RJMvMQkkJR_VjAVG7Zus-424">
          <mxGeometry x="140" width="80" height="30" as="geometry">
            <mxRectangle width="80" height="30" as="alternateBounds" />
          </mxGeometry>
        </mxCell>
        <mxCell id="RJMvMQkkJR_VjAVG7Zus-427" value="" style="shape=tableRow;horizontal=0;startSize=0;swimlaneHead=0;swimlaneBody=0;strokeColor=inherit;top=0;left=0;bottom=0;right=0;collapsible=0;dropTarget=0;fillColor=none;points=[[0,0.5],[1,0.5]];portConstraint=eastwest;" vertex="1" parent="RJMvMQkkJR_VjAVG7Zus-417">
          <mxGeometry y="120" width="220" height="30" as="geometry" />
        </mxCell>
        <mxCell id="RJMvMQkkJR_VjAVG7Zus-428" value="review" style="shape=partialRectangle;html=1;whiteSpace=wrap;connectable=0;strokeColor=inherit;overflow=hidden;fillColor=default;top=0;left=0;bottom=0;right=0;pointerEvents=1;align=left;fontSize=14;spacingLeft=5;" vertex="1" parent="RJMvMQkkJR_VjAVG7Zus-427">
          <mxGeometry width="140" height="30" as="geometry">
            <mxRectangle width="140" height="30" as="alternateBounds" />
          </mxGeometry>
        </mxCell>
        <mxCell id="RJMvMQkkJR_VjAVG7Zus-429" value="string" style="shape=partialRectangle;html=1;whiteSpace=wrap;connectable=0;strokeColor=inherit;overflow=hidden;fillColor=default;top=0;left=0;bottom=0;right=0;pointerEvents=1;align=left;fontSize=14;spacingLeft=5;" vertex="1" parent="RJMvMQkkJR_VjAVG7Zus-427">
          <mxGeometry x="140" width="80" height="30" as="geometry">
            <mxRectangle width="80" height="30" as="alternateBounds" />
          </mxGeometry>
        </mxCell>
        <mxCell id="RJMvMQkkJR_VjAVG7Zus-476" value="" style="shape=tableRow;horizontal=0;startSize=0;swimlaneHead=0;swimlaneBody=0;strokeColor=inherit;top=0;left=0;bottom=0;right=0;collapsible=0;dropTarget=0;fillColor=none;points=[[0,0.5],[1,0.5]];portConstraint=eastwest;" vertex="1" parent="RJMvMQkkJR_VjAVG7Zus-417">
          <mxGeometry y="150" width="220" height="30" as="geometry" />
        </mxCell>
        <mxCell id="RJMvMQkkJR_VjAVG7Zus-477" value="rating" style="shape=partialRectangle;html=1;whiteSpace=wrap;connectable=0;strokeColor=inherit;overflow=hidden;fillColor=default;top=0;left=0;bottom=0;right=0;pointerEvents=1;align=left;fontSize=14;spacingLeft=5;" vertex="1" parent="RJMvMQkkJR_VjAVG7Zus-476">
          <mxGeometry width="140" height="30" as="geometry">
            <mxRectangle width="140" height="30" as="alternateBounds" />
          </mxGeometry>
        </mxCell>
        <mxCell id="RJMvMQkkJR_VjAVG7Zus-478" value="number" style="shape=partialRectangle;html=1;whiteSpace=wrap;connectable=0;strokeColor=inherit;overflow=hidden;fillColor=default;top=0;left=0;bottom=0;right=0;pointerEvents=1;align=left;fontSize=14;spacingLeft=5;" vertex="1" parent="RJMvMQkkJR_VjAVG7Zus-476">
          <mxGeometry x="140" width="80" height="30" as="geometry">
            <mxRectangle width="80" height="30" as="alternateBounds" />
          </mxGeometry>
        </mxCell>
        <mxCell id="RJMvMQkkJR_VjAVG7Zus-430" value="Reaction" style="shape=table;startSize=30;container=1;collapsible=0;childLayout=tableLayout;fillColor=#dae8fc;strokeColor=#6c8ebf;fontStyle=1;fontSize=18;" vertex="1" parent="1">
          <mxGeometry x="950" y="520" width="160" height="210" as="geometry" />
        </mxCell>
        <mxCell id="RJMvMQkkJR_VjAVG7Zus-431" value="" style="shape=tableRow;horizontal=0;startSize=0;swimlaneHead=0;swimlaneBody=0;strokeColor=inherit;top=0;left=0;bottom=0;right=0;collapsible=0;dropTarget=0;fillColor=none;points=[[0,0.5],[1,0.5]];portConstraint=eastwest;" vertex="1" parent="RJMvMQkkJR_VjAVG7Zus-430">
          <mxGeometry y="30" width="160" height="30" as="geometry" />
        </mxCell>
        <mxCell id="RJMvMQkkJR_VjAVG7Zus-432" value="reactionID" style="shape=partialRectangle;html=1;whiteSpace=wrap;connectable=0;strokeColor=inherit;overflow=hidden;fillColor=default;top=0;left=0;bottom=0;right=0;pointerEvents=1;align=left;fontSize=14;spacingLeft=5;" vertex="1" parent="RJMvMQkkJR_VjAVG7Zus-431">
          <mxGeometry width="91" height="30" as="geometry">
            <mxRectangle width="91" height="30" as="alternateBounds" />
          </mxGeometry>
        </mxCell>
        <mxCell id="RJMvMQkkJR_VjAVG7Zus-433" value="string" style="shape=partialRectangle;html=1;whiteSpace=wrap;connectable=0;strokeColor=inherit;overflow=hidden;fillColor=default;top=0;left=0;bottom=0;right=0;pointerEvents=1;align=left;fontSize=14;spacingLeft=5;" vertex="1" parent="RJMvMQkkJR_VjAVG7Zus-431">
          <mxGeometry x="91" width="69" height="30" as="geometry">
            <mxRectangle width="69" height="30" as="alternateBounds" />
          </mxGeometry>
        </mxCell>
        <mxCell id="RJMvMQkkJR_VjAVG7Zus-434" value="" style="shape=tableRow;horizontal=0;startSize=0;swimlaneHead=0;swimlaneBody=0;strokeColor=inherit;top=0;left=0;bottom=0;right=0;collapsible=0;dropTarget=0;fillColor=none;points=[[0,0.5],[1,0.5]];portConstraint=eastwest;" vertex="1" parent="RJMvMQkkJR_VjAVG7Zus-430">
          <mxGeometry y="60" width="160" height="30" as="geometry" />
        </mxCell>
        <mxCell id="RJMvMQkkJR_VjAVG7Zus-435" value="user" style="shape=partialRectangle;html=1;whiteSpace=wrap;connectable=0;strokeColor=inherit;overflow=hidden;fillColor=default;top=0;left=0;bottom=0;right=0;pointerEvents=1;align=left;fontSize=14;spacingLeft=5;" vertex="1" parent="RJMvMQkkJR_VjAVG7Zus-434">
          <mxGeometry width="91" height="30" as="geometry">
            <mxRectangle width="91" height="30" as="alternateBounds" />
          </mxGeometry>
        </mxCell>
        <mxCell id="RJMvMQkkJR_VjAVG7Zus-436" value="string" style="shape=partialRectangle;html=1;whiteSpace=wrap;connectable=0;strokeColor=inherit;overflow=hidden;fillColor=default;top=0;left=0;bottom=0;right=0;pointerEvents=1;align=left;fontSize=14;spacingLeft=5;" vertex="1" parent="RJMvMQkkJR_VjAVG7Zus-434">
          <mxGeometry x="91" width="69" height="30" as="geometry">
            <mxRectangle width="69" height="30" as="alternateBounds" />
          </mxGeometry>
        </mxCell>
        <mxCell id="RJMvMQkkJR_VjAVG7Zus-437" value="" style="shape=tableRow;horizontal=0;startSize=0;swimlaneHead=0;swimlaneBody=0;strokeColor=inherit;top=0;left=0;bottom=0;right=0;collapsible=0;dropTarget=0;fillColor=none;points=[[0,0.5],[1,0.5]];portConstraint=eastwest;" vertex="1" parent="RJMvMQkkJR_VjAVG7Zus-430">
          <mxGeometry y="90" width="160" height="30" as="geometry" />
        </mxCell>
        <mxCell id="RJMvMQkkJR_VjAVG7Zus-438" value="onPost" style="shape=partialRectangle;html=1;whiteSpace=wrap;connectable=0;strokeColor=inherit;overflow=hidden;fillColor=default;top=0;left=0;bottom=0;right=0;pointerEvents=1;align=left;fontSize=14;spacingLeft=5;" vertex="1" parent="RJMvMQkkJR_VjAVG7Zus-437">
          <mxGeometry width="91" height="30" as="geometry">
            <mxRectangle width="91" height="30" as="alternateBounds" />
          </mxGeometry>
        </mxCell>
        <mxCell id="RJMvMQkkJR_VjAVG7Zus-439" value="boolean" style="shape=partialRectangle;html=1;whiteSpace=wrap;connectable=0;strokeColor=inherit;overflow=hidden;fillColor=default;top=0;left=0;bottom=0;right=0;pointerEvents=1;align=left;fontSize=14;spacingLeft=5;" vertex="1" parent="RJMvMQkkJR_VjAVG7Zus-437">
          <mxGeometry x="91" width="69" height="30" as="geometry">
            <mxRectangle width="69" height="30" as="alternateBounds" />
          </mxGeometry>
        </mxCell>
        <mxCell id="RJMvMQkkJR_VjAVG7Zus-440" value="" style="shape=tableRow;horizontal=0;startSize=0;swimlaneHead=0;swimlaneBody=0;strokeColor=inherit;top=0;left=0;bottom=0;right=0;collapsible=0;dropTarget=0;fillColor=none;points=[[0,0.5],[1,0.5]];portConstraint=eastwest;" vertex="1" parent="RJMvMQkkJR_VjAVG7Zus-430">
          <mxGeometry y="120" width="160" height="30" as="geometry" />
        </mxCell>
        <mxCell id="RJMvMQkkJR_VjAVG7Zus-441" value="post?" style="shape=partialRectangle;html=1;whiteSpace=wrap;connectable=0;strokeColor=inherit;overflow=hidden;fillColor=default;top=0;left=0;bottom=0;right=0;pointerEvents=1;align=left;fontSize=14;spacingLeft=5;" vertex="1" parent="RJMvMQkkJR_VjAVG7Zus-440">
          <mxGeometry width="91" height="30" as="geometry">
            <mxRectangle width="91" height="30" as="alternateBounds" />
          </mxGeometry>
        </mxCell>
        <mxCell id="RJMvMQkkJR_VjAVG7Zus-442" value="string" style="shape=partialRectangle;html=1;whiteSpace=wrap;connectable=0;strokeColor=inherit;overflow=hidden;fillColor=default;top=0;left=0;bottom=0;right=0;pointerEvents=1;align=left;fontSize=14;spacingLeft=5;" vertex="1" parent="RJMvMQkkJR_VjAVG7Zus-440">
          <mxGeometry x="91" width="69" height="30" as="geometry">
            <mxRectangle width="69" height="30" as="alternateBounds" />
          </mxGeometry>
        </mxCell>
        <mxCell id="RJMvMQkkJR_VjAVG7Zus-470" value="" style="shape=tableRow;horizontal=0;startSize=0;swimlaneHead=0;swimlaneBody=0;strokeColor=inherit;top=0;left=0;bottom=0;right=0;collapsible=0;dropTarget=0;fillColor=none;points=[[0,0.5],[1,0.5]];portConstraint=eastwest;" vertex="1" parent="RJMvMQkkJR_VjAVG7Zus-430">
          <mxGeometry y="150" width="160" height="30" as="geometry" />
        </mxCell>
        <mxCell id="RJMvMQkkJR_VjAVG7Zus-471" value="comment?" style="shape=partialRectangle;html=1;whiteSpace=wrap;connectable=0;strokeColor=inherit;overflow=hidden;fillColor=default;top=0;left=0;bottom=0;right=0;pointerEvents=1;align=left;fontSize=14;spacingLeft=5;" vertex="1" parent="RJMvMQkkJR_VjAVG7Zus-470">
          <mxGeometry width="91" height="30" as="geometry">
            <mxRectangle width="91" height="30" as="alternateBounds" />
          </mxGeometry>
        </mxCell>
        <mxCell id="RJMvMQkkJR_VjAVG7Zus-472" value="string" style="shape=partialRectangle;html=1;whiteSpace=wrap;connectable=0;strokeColor=inherit;overflow=hidden;fillColor=default;top=0;left=0;bottom=0;right=0;pointerEvents=1;align=left;fontSize=14;spacingLeft=5;" vertex="1" parent="RJMvMQkkJR_VjAVG7Zus-470">
          <mxGeometry x="91" width="69" height="30" as="geometry">
            <mxRectangle width="69" height="30" as="alternateBounds" />
          </mxGeometry>
        </mxCell>
        <mxCell id="RJMvMQkkJR_VjAVG7Zus-473" value="" style="shape=tableRow;horizontal=0;startSize=0;swimlaneHead=0;swimlaneBody=0;strokeColor=inherit;top=0;left=0;bottom=0;right=0;collapsible=0;dropTarget=0;fillColor=none;points=[[0,0.5],[1,0.5]];portConstraint=eastwest;" vertex="1" parent="RJMvMQkkJR_VjAVG7Zus-430">
          <mxGeometry y="180" width="160" height="30" as="geometry" />
        </mxCell>
        <mxCell id="RJMvMQkkJR_VjAVG7Zus-474" value="reaction" style="shape=partialRectangle;html=1;whiteSpace=wrap;connectable=0;strokeColor=inherit;overflow=hidden;fillColor=default;top=0;left=0;bottom=0;right=0;pointerEvents=1;align=left;fontSize=14;spacingLeft=5;" vertex="1" parent="RJMvMQkkJR_VjAVG7Zus-473">
          <mxGeometry width="91" height="30" as="geometry">
            <mxRectangle width="91" height="30" as="alternateBounds" />
          </mxGeometry>
        </mxCell>
        <mxCell id="RJMvMQkkJR_VjAVG7Zus-475" value="string" style="shape=partialRectangle;html=1;whiteSpace=wrap;connectable=0;strokeColor=inherit;overflow=hidden;fillColor=default;top=0;left=0;bottom=0;right=0;pointerEvents=1;align=left;fontSize=14;spacingLeft=5;" vertex="1" parent="RJMvMQkkJR_VjAVG7Zus-473">
          <mxGeometry x="91" width="69" height="30" as="geometry">
            <mxRectangle width="69" height="30" as="alternateBounds" />
          </mxGeometry>
        </mxCell>
        <mxCell id="RJMvMQkkJR_VjAVG7Zus-507" value="" style="edgeStyle=elbowEdgeStyle;fontSize=12;html=1;endArrow=ERone;endFill=1;rounded=0;exitX=0;exitY=0.5;exitDx=0;exitDy=0;entryX=0;entryY=0.5;entryDx=0;entryDy=0;" edge="1" parent="1" source="RJMvMQkkJR_VjAVG7Zus-340" target="RJMvMQkkJR_VjAVG7Zus-382">
          <mxGeometry width="100" height="100" relative="1" as="geometry">
            <mxPoint x="1720" y="520" as="sourcePoint" />
            <mxPoint x="1820" y="420" as="targetPoint" />
            <Array as="points">
              <mxPoint x="1160" y="230" />
            </Array>
          </mxGeometry>
        </mxCell>
        <mxCell id="RJMvMQkkJR_VjAVG7Zus-508" value="" style="edgeStyle=elbowEdgeStyle;fontSize=12;html=1;endArrow=ERmany;rounded=0;exitX=0;exitY=0.5;exitDx=0;exitDy=0;entryX=1;entryY=0.5;entryDx=0;entryDy=0;" edge="1" parent="1" source="RJMvMQkkJR_VjAVG7Zus-379" target="RJMvMQkkJR_VjAVG7Zus-352">
          <mxGeometry width="100" height="100" relative="1" as="geometry">
            <mxPoint x="1720" y="690" as="sourcePoint" />
            <mxPoint x="1820" y="590" as="targetPoint" />
          </mxGeometry>
        </mxCell>
        <mxCell id="RJMvMQkkJR_VjAVG7Zus-509" value="" style="edgeStyle=elbowEdgeStyle;fontSize=12;html=1;endArrow=ERmany;rounded=0;exitX=0;exitY=0.5;exitDx=0;exitDy=0;entryX=0;entryY=0.5;entryDx=0;entryDy=0;" edge="1" parent="1" source="RJMvMQkkJR_VjAVG7Zus-392" target="RJMvMQkkJR_VjAVG7Zus-359">
          <mxGeometry width="100" height="100" relative="1" as="geometry">
            <mxPoint x="1720" y="690" as="sourcePoint" />
            <mxPoint x="1820" y="590" as="targetPoint" />
            <Array as="points">
              <mxPoint x="930" y="290" />
            </Array>
          </mxGeometry>
        </mxCell>
        <mxCell id="RJMvMQkkJR_VjAVG7Zus-510" value="" style="edgeStyle=elbowEdgeStyle;fontSize=12;html=1;endArrow=ERmany;rounded=0;exitX=0;exitY=0.5;exitDx=0;exitDy=0;entryX=1;entryY=0.5;entryDx=0;entryDy=0;" edge="1" parent="1" source="RJMvMQkkJR_VjAVG7Zus-379" target="RJMvMQkkJR_VjAVG7Zus-395">
          <mxGeometry width="100" height="100" relative="1" as="geometry">
            <mxPoint x="1720" y="690" as="sourcePoint" />
            <mxPoint x="1820" y="590" as="targetPoint" />
          </mxGeometry>
        </mxCell>
        <mxCell id="RJMvMQkkJR_VjAVG7Zus-511" value="" style="edgeStyle=elbowEdgeStyle;fontSize=12;html=1;endArrow=ERmany;rounded=0;exitX=0;exitY=0.5;exitDx=0;exitDy=0;entryX=1;entryY=0.5;entryDx=0;entryDy=0;" edge="1" parent="1" source="RJMvMQkkJR_VjAVG7Zus-379" target="RJMvMQkkJR_VjAVG7Zus-434">
          <mxGeometry width="100" height="100" relative="1" as="geometry">
            <mxPoint x="1720" y="690" as="sourcePoint" />
            <mxPoint x="1820" y="590" as="targetPoint" />
          </mxGeometry>
        </mxCell>
        <mxCell id="RJMvMQkkJR_VjAVG7Zus-512" value="" style="edgeStyle=elbowEdgeStyle;fontSize=12;html=1;endArrow=ERmany;rounded=0;exitX=0;exitY=0.5;exitDx=0;exitDy=0;entryX=0;entryY=0.5;entryDx=0;entryDy=0;" edge="1" parent="1" source="RJMvMQkkJR_VjAVG7Zus-392" target="RJMvMQkkJR_VjAVG7Zus-440">
          <mxGeometry width="100" height="100" relative="1" as="geometry">
            <mxPoint x="1720" y="690" as="sourcePoint" />
            <mxPoint x="1820" y="590" as="targetPoint" />
            <Array as="points">
              <mxPoint x="930" y="510" />
            </Array>
          </mxGeometry>
        </mxCell>
        <mxCell id="RJMvMQkkJR_VjAVG7Zus-513" value="" style="edgeStyle=elbowEdgeStyle;fontSize=12;html=1;endArrow=ERmany;rounded=0;exitX=0;exitY=0.5;exitDx=0;exitDy=0;entryX=0;entryY=0.5;entryDx=0;entryDy=0;" edge="1" parent="1" source="RJMvMQkkJR_VjAVG7Zus-353" target="RJMvMQkkJR_VjAVG7Zus-470">
          <mxGeometry width="100" height="100" relative="1" as="geometry">
            <mxPoint x="1720" y="690" as="sourcePoint" />
            <mxPoint x="1820" y="590" as="targetPoint" />
            <Array as="points">
              <mxPoint x="910" y="420" />
            </Array>
          </mxGeometry>
        </mxCell>
        <mxCell id="RJMvMQkkJR_VjAVG7Zus-514" value="" style="edgeStyle=elbowEdgeStyle;fontSize=12;html=1;endArrow=ERmany;rounded=0;exitX=1;exitY=0.5;exitDx=0;exitDy=0;entryX=0;entryY=0.5;entryDx=0;entryDy=0;" edge="1" parent="1" source="RJMvMQkkJR_VjAVG7Zus-379" target="RJMvMQkkJR_VjAVG7Zus-369">
          <mxGeometry width="100" height="100" relative="1" as="geometry">
            <mxPoint x="1720" y="690" as="sourcePoint" />
            <mxPoint x="1820" y="590" as="targetPoint" />
          </mxGeometry>
        </mxCell>
        <mxCell id="RJMvMQkkJR_VjAVG7Zus-518" value="" style="edgeStyle=elbowEdgeStyle;fontSize=12;html=1;endArrow=ERmany;rounded=0;exitX=1;exitY=0.5;exitDx=0;exitDy=0;entryX=0;entryY=0.5;entryDx=0;entryDy=0;" edge="1" parent="1" source="RJMvMQkkJR_VjAVG7Zus-379" target="RJMvMQkkJR_VjAVG7Zus-515">
          <mxGeometry width="100" height="100" relative="1" as="geometry">
            <mxPoint x="1720" y="690" as="sourcePoint" />
            <mxPoint x="1820" y="590" as="targetPoint" />
          </mxGeometry>
        </mxCell>
        <mxCell id="RJMvMQkkJR_VjAVG7Zus-519" value="" style="edgeStyle=elbowEdgeStyle;fontSize=12;html=1;endArrow=ERmany;rounded=0;exitX=0;exitY=0.5;exitDx=0;exitDy=0;entryX=0;entryY=0.5;entryDx=0;entryDy=0;" edge="1" parent="1" source="RJMvMQkkJR_VjAVG7Zus-366" target="RJMvMQkkJR_VjAVG7Zus-239">
          <mxGeometry width="100" height="100" relative="1" as="geometry">
            <mxPoint x="1720" y="690" as="sourcePoint" />
            <mxPoint x="1820" y="590" as="targetPoint" />
            <Array as="points">
              <mxPoint x="1470" y="290" />
            </Array>
          </mxGeometry>
        </mxCell>
        <mxCell id="RJMvMQkkJR_VjAVG7Zus-520" value="" style="edgeStyle=elbowEdgeStyle;fontSize=12;html=1;endArrow=ERone;endFill=1;rounded=0;exitX=1;exitY=0.5;exitDx=0;exitDy=0;entryX=0;entryY=0.5;entryDx=0;entryDy=0;" edge="1" parent="1" source="RJMvMQkkJR_VjAVG7Zus-379" target="RJMvMQkkJR_VjAVG7Zus-405">
          <mxGeometry width="100" height="100" relative="1" as="geometry">
            <mxPoint x="1720" y="520" as="sourcePoint" />
            <mxPoint x="1820" y="420" as="targetPoint" />
          </mxGeometry>
        </mxCell>
        <mxCell id="RJMvMQkkJR_VjAVG7Zus-521" value="" style="edgeStyle=elbowEdgeStyle;fontSize=12;html=1;endArrow=ERone;endFill=1;rounded=0;exitX=1;exitY=0.5;exitDx=0;exitDy=0;entryX=0;entryY=0.5;entryDx=0;entryDy=0;" edge="1" parent="1" source="RJMvMQkkJR_VjAVG7Zus-379" target="RJMvMQkkJR_VjAVG7Zus-408">
          <mxGeometry width="100" height="100" relative="1" as="geometry">
            <mxPoint x="1730" y="530" as="sourcePoint" />
            <mxPoint x="1830" y="430" as="targetPoint" />
          </mxGeometry>
        </mxCell>
        <mxCell id="RJMvMQkkJR_VjAVG7Zus-522" value="" style="edgeStyle=elbowEdgeStyle;fontSize=12;html=1;endArrow=ERone;endFill=1;rounded=0;exitX=0;exitY=0.5;exitDx=0;exitDy=0;entryX=0;entryY=0.5;entryDx=0;entryDy=0;" edge="1" parent="1" source="RJMvMQkkJR_VjAVG7Zus-379" target="RJMvMQkkJR_VjAVG7Zus-421">
          <mxGeometry width="100" height="100" relative="1" as="geometry">
            <mxPoint x="1720" y="520" as="sourcePoint" />
            <mxPoint x="1820" y="420" as="targetPoint" />
            <Array as="points">
              <mxPoint x="1150" y="600" />
            </Array>
          </mxGeometry>
        </mxCell>
        <mxCell id="RJMvMQkkJR_VjAVG7Zus-523" value="" style="edgeStyle=elbowEdgeStyle;fontSize=12;html=1;endArrow=ERone;endFill=1;rounded=0;exitX=0;exitY=0.5;exitDx=0;exitDy=0;entryX=0;entryY=0.5;entryDx=0;entryDy=0;" edge="1" parent="1" source="RJMvMQkkJR_VjAVG7Zus-379" target="RJMvMQkkJR_VjAVG7Zus-424">
          <mxGeometry width="100" height="100" relative="1" as="geometry">
            <mxPoint x="1720" y="520" as="sourcePoint" />
            <mxPoint x="1820" y="420" as="targetPoint" />
            <Array as="points">
              <mxPoint x="1150" y="610" />
            </Array>
          </mxGeometry>
        </mxCell>
      </root>
    </mxGraphModel>
  </diagram>
</mxfile>
